<?xml version="1.0" standalone="no"?>
<!DOCTYPE svg PUBLIC "-//W3C//DTD SVG 20010904//EN"
 "http://www.w3.org/TR/2001/REC-SVG-20010904/DTD/svg10.dtd">
<svg version="1.0" xmlns="http://www.w3.org/2000/svg"
 width="1280.000000pt" height="800.000000pt" viewBox="0 0 1280.000000 800.000000"
 preserveAspectRatio="xMidYMid meet">
<g transform="translate(0.000000,800.000000) scale(0.100000,-0.100000)"
fill="#fff8b3" stroke="none">
<path d="M0 7779 l0 -221 30 -35 c16 -18 30 -40 30 -48 0 -20 48 -73 83 -92
24 -12 47 -14 102 -9 111 10 156 -15 201 -111 16 -34 37 -60 60 -74 32 -19 45
-21 116 -16 118 9 161 -15 208 -115 29 -62 73 -90 141 -90 27 1 58 4 69 7 30
10 94 -12 122 -42 14 -16 36 -49 48 -75 35 -75 94 -103 187 -88 46 8 63 6 97
-9 49 -21 63 -36 96 -105 37 -75 85 -97 193 -89 75 5 85 3 117 -19 21 -14 47
-48 66 -83 45 -88 83 -107 194 -99 78 6 88 4 120 -18 21 -14 47 -47 65 -82 47
-89 70 -102 186 -98 86 2 100 0 130 -21 20 -13 47 -47 65 -82 47 -90 65 -100
187 -100 91 0 106 -3 135 -23 18 -13 45 -49 60 -80 17 -34 42 -66 63 -81 31
-21 41 -23 119 -17 111 8 151 -12 195 -97 37 -69 52 -85 99 -101 27 -9 53 -10
97 -4 54 9 65 7 107 -14 35 -17 53 -34 69 -66 38 -75 54 -93 99 -113 39 -18
51 -19 105 -9 56 10 65 9 107 -12 36 -18 52 -35 75 -78 52 -99 98 -128 180
-114 106 18 162 -7 201 -89 45 -97 89 -120 205 -111 99 7 134 -10 174 -87 55
-106 87 -124 198 -114 70 6 82 5 119 -16 29 -17 48 -37 66 -75 49 -101 101
-127 216 -108 l37 6 -20 52 c-37 94 -73 116 -187 116 -71 0 -83 3 -119 29 -30
22 -45 43 -57 78 -33 96 -62 116 -184 123 -114 7 -141 21 -172 90 -40 86 -46
95 -79 117 -28 19 -47 23 -113 23 -112 0 -153 25 -183 110 -31 89 -82 121
-189 119 -95 -1 -135 20 -166 89 -12 26 -27 58 -33 70 -24 50 -65 67 -160 68
-82 1 -90 3 -125 31 -23 19 -44 48 -55 79 -35 93 -96 131 -190 120 -43 -5 -60
-2 -97 16 -44 23 -49 29 -98 133 -27 59 -88 88 -164 80 -95 -10 -149 25 -186
120 -12 30 -34 61 -56 79 -34 28 -42 30 -124 30 -81 1 -92 3 -124 28 -23 18
-43 45 -54 75 -26 71 -41 90 -88 113 -35 16 -54 19 -103 14 -52 -6 -66 -3
-102 17 -34 19 -48 36 -76 96 -46 97 -72 113 -181 113 -104 0 -137 19 -179
107 -17 35 -42 75 -57 90 -25 24 -36 27 -125 33 -124 8 -144 20 -188 115 -44
96 -73 115 -182 115 -105 0 -135 19 -183 115 -48 96 -78 115 -184 115 -107 0
-136 19 -185 120 -46 94 -73 110 -186 110 -74 0 -84 2 -114 28 -19 15 -48 57
-65 92 -43 90 -68 105 -170 106 -83 2 -128 16 -155 48 -10 12 -33 16 -97 16
l-84 0 0 -221z"/>
<path d="M1424 7974 c17 -68 88 -114 175 -114 91 0 130 -32 160 -131 29 -94
73 -129 160 -129 95 0 152 -41 177 -128 29 -97 89 -142 192 -142 81 0 125 -38
152 -132 28 -92 63 -119 163 -127 96 -8 140 -35 162 -99 10 -26 22 -59 27 -75
6 -15 26 -41 45 -57 29 -26 42 -30 89 -30 103 0 165 -42 191 -130 30 -105 62
-130 174 -140 95 -8 131 -31 154 -98 42 -121 83 -162 164 -162 104 0 162 -39
188 -130 9 -30 22 -65 30 -77 23 -35 92 -63 154 -63 41 0 63 -6 89 -24 39 -26
51 -45 75 -122 25 -79 72 -114 155 -114 96 0 158 -47 180 -138 20 -87 85 -132
188 -132 78 0 126 -41 151 -130 26 -91 73 -130 158 -130 98 0 154 -40 179
-130 28 -95 89 -140 192 -140 81 0 125 -38 152 -132 28 -92 65 -121 160 -126
l68 -4 -13 54 c-7 30 -17 64 -24 75 -20 39 -69 65 -137 73 -35 5 -76 16 -90
25 -33 22 -60 68 -68 117 -15 92 -61 135 -159 146 -101 13 -138 46 -161 146
-23 99 -58 130 -165 144 -94 13 -141 57 -155 144 -15 91 -61 133 -158 144 -95
11 -148 58 -162 146 -15 93 -50 125 -163 144 -103 18 -142 55 -157 150 -15 88
-64 128 -171 140 -51 5 -65 11 -97 43 -20 21 -39 51 -43 67 -16 76 -28 105
-55 133 -30 30 -44 34 -135 46 -39 5 -57 15 -86 44 -21 21 -40 51 -44 67 -26
127 -70 174 -161 174 -81 0 -145 55 -163 141 -6 28 -19 64 -28 79 -21 37 -82
70 -127 70 -85 0 -147 54 -166 145 -19 91 -81 145 -166 145 -45 0 -106 33
-127 70 -9 15 -22 52 -28 81 -16 75 -66 125 -134 134 -91 12 -105 16 -135 46
-16 17 -35 49 -41 72 -6 23 -16 57 -21 75 l-10 32 -380 0 -380 0 6 -26z"/>
<path d="M2957 7981 c45 -28 65 -64 75 -132 14 -107 45 -142 144 -165 30 -7
66 -20 80 -29 37 -24 64 -75 64 -120 1 -52 31 -119 65 -141 14 -9 51 -23 81
-30 98 -22 144 -72 144 -154 0 -86 58 -153 145 -165 51 -8 98 -35 120 -69 9
-14 21 -55 25 -91 4 -36 16 -77 25 -91 22 -33 68 -60 117 -68 93 -15 136 -62
148 -162 5 -35 16 -76 25 -90 22 -33 68 -60 117 -68 92 -15 135 -61 146 -159
13 -101 46 -138 146 -161 99 -23 130 -58 144 -165 13 -94 57 -141 144 -155 91
-15 133 -61 144 -158 4 -31 15 -71 25 -87 22 -37 74 -71 109 -71 43 -1 106
-36 128 -71 11 -19 24 -62 28 -98 10 -94 55 -139 154 -155 82 -14 124 -67 135
-169 10 -89 59 -137 155 -151 l45 -7 -5 71 c-5 64 -8 73 -41 105 -23 24 -53
40 -88 50 -88 23 -131 77 -131 165 0 98 -38 146 -137 175 -92 27 -133 86 -133
195 0 76 -42 122 -132 146 -85 22 -128 77 -128 164 0 95 -39 147 -131 174 -26
8 -56 19 -67 25 -35 19 -59 72 -64 141 -9 110 -40 149 -139 175 -87 23 -129
80 -129 175 0 86 -40 138 -127 163 -71 21 -88 32 -112 71 -14 23 -21 50 -21
87 0 63 -28 131 -62 153 -14 9 -47 23 -75 31 -55 16 -97 45 -115 78 -6 12 -14
57 -18 100 -6 70 -10 82 -40 111 -21 23 -51 39 -90 50 -59 17 -105 52 -121 94
-5 13 -9 46 -9 74 0 93 -41 145 -133 172 -97 29 -127 68 -136 181 l-6 70 -260
3 -260 2 32 -19z"/>
<path d="M3960 7961 c0 -50 34 -99 85 -123 131 -62 145 -82 145 -205 0 -80 1
-84 34 -121 21 -22 54 -45 84 -55 86 -31 113 -77 110 -185 -2 -100 25 -143
112 -176 91 -35 121 -83 118 -189 -2 -60 2 -79 20 -108 22 -36 32 -43 113 -77
70 -30 94 -70 95 -162 0 -41 1 -83 2 -92 3 -32 62 -86 111 -103 87 -29 127
-92 116 -185 -5 -46 -2 -63 17 -100 13 -25 34 -50 48 -57 14 -7 48 -23 75 -36
68 -31 99 -88 89 -164 -11 -93 28 -157 116 -188 86 -30 113 -75 114 -190 1
-68 5 -85 25 -114 13 -18 40 -40 60 -48 124 -51 141 -74 141 -188 0 -106 22
-145 104 -184 61 -29 61 -29 68 -7 3 11 6 46 7 76 1 75 -22 110 -101 152 -90
48 -110 85 -102 198 7 107 -8 136 -95 179 -33 17 -70 45 -83 63 -21 30 -23 42
-20 128 2 85 0 99 -21 128 -12 19 -49 48 -81 65 -91 49 -101 68 -101 190 0
123 -12 145 -101 192 -35 18 -68 44 -82 65 -22 32 -23 42 -18 120 8 111 -11
149 -99 194 -35 19 -69 45 -83 66 -22 32 -24 42 -18 116 8 108 -15 156 -90
194 -69 33 -84 47 -105 96 -16 35 -17 49 -8 102 10 56 9 66 -11 107 -18 36
-33 51 -74 71 -104 53 -134 104 -117 197 17 93 -16 159 -99 193 -75 32 -118
101 -106 170 l7 34 -201 0 -200 0 0 -39z"/>
<path d="M4830 7958 c-22 -81 4 -134 95 -192 41 -27 56 -44 70 -80 16 -42 16
-50 2 -109 -25 -98 -5 -149 79 -203 90 -57 97 -81 79 -241 -9 -76 7 -108 80
-156 27 -18 60 -48 73 -67 21 -30 23 -42 17 -90 -17 -141 -16 -144 4 -178 12
-17 45 -47 74 -66 73 -47 92 -86 82 -162 -21 -150 -10 -181 79 -238 84 -54
104 -105 79 -203 -14 -59 -14 -67 2 -109 14 -36 29 -53 70 -80 96 -61 117
-110 92 -207 -25 -95 0 -151 91 -204 56 -33 86 -90 78 -147 -18 -123 -17 -150
3 -183 11 -18 42 -46 68 -63 l48 -29 17 37 c21 47 22 115 2 155 -8 18 -38 49
-65 70 -75 57 -96 124 -64 200 34 81 11 151 -67 207 -77 55 -94 114 -62 215
29 91 10 135 -95 215 -19 15 -38 43 -47 69 -14 41 -13 49 7 114 32 105 15 147
-94 230 -54 41 -65 91 -39 178 30 101 15 150 -66 209 -75 54 -96 114 -68 196
32 96 14 157 -66 214 -74 53 -96 124 -63 203 33 80 11 147 -68 205 -29 22 -60
54 -66 71 -15 34 -11 93 9 162 7 25 10 57 6 72 l-6 27 -180 0 -179 0 -11 -42z"/>
<path d="M5582 7963 c65 -67 71 -110 32 -207 -36 -87 -29 -121 40 -195 87 -91
93 -121 50 -223 -36 -86 -28 -125 41 -198 29 -30 57 -65 64 -77 18 -35 13 -87
-15 -147 -37 -81 -28 -123 41 -196 29 -30 57 -65 64 -77 17 -32 13 -89 -8
-131 -44 -89 -35 -144 35 -212 82 -81 92 -126 48 -233 -23 -56 -25 -67 -14
-105 7 -29 26 -56 56 -85 25 -23 52 -54 60 -69 19 -36 18 -90 -2 -136 -45
-103 -38 -150 32 -215 25 -23 52 -54 60 -69 20 -39 17 -102 -7 -151 -42 -80
-26 -150 46 -211 l44 -37 25 48 c44 88 40 139 -18 201 -24 26 -48 57 -55 69
-19 37 -13 112 13 157 48 83 42 147 -20 206 -73 71 -82 130 -34 232 16 34 30
72 30 83 -1 31 -35 98 -65 125 -64 59 -72 129 -25 217 17 31 30 68 30 82 -1
37 -32 101 -65 131 -63 58 -70 120 -25 210 45 89 39 131 -31 207 -69 75 -76
128 -29 216 46 87 39 141 -30 212 -69 71 -76 128 -30 215 48 89 39 149 -34
219 -43 41 -60 89 -52 142 l6 39 -147 0 -147 0 36 -37z"/>
<path d="M6295 7947 c0 -43 -6 -61 -34 -101 -23 -34 -36 -64 -38 -95 -5 -47 3
-63 74 -160 30 -41 22 -108 -20 -177 -28 -44 -37 -70 -37 -102 0 -48 7 -65 56
-129 48 -62 47 -118 -1 -192 -59 -93 -58 -136 5 -222 41 -54 57 -102 46 -141
-3 -13 -21 -48 -41 -78 -50 -78 -49 -129 5 -201 23 -30 43 -64 47 -77 11 -45
-4 -106 -37 -155 -28 -39 -34 -56 -33 -97 0 -30 7 -59 17 -73 70 -95 78 -111
73 -160 -3 -34 -14 -61 -38 -95 -29 -40 -34 -55 -34 -103 0 -50 4 -61 43 -111
23 -30 42 -65 42 -76 0 -12 5 -22 10 -22 6 0 10 10 10 22 0 11 19 46 43 76 38
50 42 61 42 111 0 48 -5 63 -34 103 -24 34 -35 61 -38 95 -5 49 3 65 73 160 9
14 17 43 17 72 1 41 -5 58 -36 103 -47 68 -51 135 -12 189 58 79 65 95 65 139
0 35 -8 58 -35 100 -20 30 -38 65 -41 78 -11 39 5 87 46 142 63 85 64 126 1
224 -44 71 -43 128 3 189 49 64 56 81 56 129 0 32 -9 58 -37 102 -42 69 -50
136 -20 177 71 97 79 113 74 160 -2 31 -15 61 -38 95 -28 40 -34 58 -34 101
l0 53 -105 0 -105 0 0 -53z"/>
<path d="M6966 7961 c8 -53 -9 -101 -52 -142 -73 -70 -81 -125 -34 -219 46
-91 40 -138 -28 -212 -22 -24 -44 -53 -51 -65 -19 -37 -13 -90 19 -150 17 -31
30 -71 30 -90 0 -44 -25 -98 -57 -123 -32 -25 -63 -86 -63 -122 0 -16 14 -55
30 -88 45 -90 38 -152 -25 -210 -33 -30 -64 -94 -65 -131 0 -14 14 -51 30 -82
32 -60 39 -121 18 -160 -6 -12 -30 -43 -54 -70 -60 -67 -65 -107 -25 -193 49
-105 41 -162 -33 -234 -62 -59 -68 -123 -20 -206 16 -28 24 -56 24 -90 0 -53
-10 -73 -72 -141 -51 -57 -55 -111 -12 -195 l25 -49 37 32 c78 67 95 136 54
216 -42 81 -23 161 51 217 62 48 76 124 38 206 -24 53 -27 110 -7 148 8 15 35
46 60 69 30 29 49 56 56 85 11 38 9 49 -14 105 -44 107 -34 154 48 231 70 66
79 125 35 214 -21 42 -25 99 -8 131 7 12 35 47 64 77 69 73 78 115 41 196 -28
60 -33 112 -15 147 7 12 35 47 64 77 69 73 78 115 41 196 -28 60 -33 112 -15
147 7 12 36 47 65 78 69 74 76 108 40 195 -39 97 -33 140 32 207 l36 37 -147
0 -147 0 6 -39z"/>
<path d="M7594 7973 c-4 -15 -1 -47 6 -72 21 -72 24 -135 7 -167 -8 -16 -39
-47 -68 -69 -70 -53 -90 -102 -69 -172 34 -119 18 -180 -61 -236 -77 -53 -94
-112 -63 -212 30 -93 19 -116 -105 -228 -47 -43 -56 -90 -30 -172 27 -87 15
-142 -39 -183 -65 -49 -90 -78 -102 -119 -11 -35 -10 -50 9 -110 20 -65 21
-73 7 -114 -9 -26 -28 -54 -47 -69 -105 -80 -124 -124 -95 -215 32 -101 15
-160 -62 -215 -79 -57 -100 -124 -66 -210 19 -47 14 -108 -10 -146 -9 -13 -36
-38 -59 -55 -23 -16 -50 -44 -59 -62 -22 -40 -22 -110 0 -159 l17 -37 48 29
c26 17 57 45 68 63 21 33 21 55 3 178 -9 62 20 118 78 152 91 53 113 104 91
202 -24 102 -4 148 92 209 41 27 56 44 70 80 16 43 16 49 0 115 -16 67 -16 71
3 115 16 34 34 54 76 81 92 58 100 84 81 239 -10 77 8 112 82 161 76 50 96 85
88 155 -4 30 -9 75 -11 100 -7 57 21 101 91 147 73 48 89 80 80 156 -20 156
-11 184 79 241 84 54 104 105 79 203 -14 59 -14 67 2 109 14 36 29 53 70 80
91 58 117 111 95 192 l-11 42 -179 0 -180 0 -6 -27z"/>
<path d="M8446 7966 c13 -72 -29 -135 -118 -176 -75 -35 -105 -97 -86 -183 19
-92 -13 -147 -115 -197 -40 -20 -57 -36 -75 -73 -23 -43 -23 -51 -13 -108 9
-54 8 -68 -8 -103 -21 -49 -36 -63 -105 -96 -75 -38 -98 -86 -90 -194 6 -74 4
-84 -18 -116 -14 -21 -48 -47 -83 -66 -88 -45 -107 -83 -99 -194 5 -78 4 -88
-18 -120 -14 -21 -47 -47 -82 -65 -89 -47 -101 -69 -101 -192 0 -122 -11 -142
-101 -189 -33 -17 -69 -45 -82 -64 -20 -29 -22 -44 -20 -129 3 -87 1 -99 -20
-129 -13 -18 -49 -45 -80 -60 -34 -17 -66 -42 -81 -63 -21 -31 -23 -41 -17
-119 8 -113 -11 -150 -102 -198 -79 -42 -102 -77 -101 -152 1 -30 4 -65 7 -76
7 -22 7 -22 68 7 82 39 105 78 103 183 -1 60 3 82 20 109 21 34 31 41 112 75
71 30 94 70 95 167 1 115 28 160 114 190 88 31 127 95 116 188 -10 76 21 133
89 164 28 13 61 29 75 36 14 7 35 32 48 57 19 37 22 54 17 100 -11 93 29 156
116 185 49 17 108 71 111 103 1 9 2 51 2 92 1 92 25 132 95 162 81 34 91 41
113 77 18 29 22 48 20 108 -3 106 29 156 118 188 84 30 114 77 112 177 -3 108
24 154 110 185 30 10 63 33 84 55 33 37 34 41 34 121 0 123 14 143 145 205 51
24 85 73 85 123 l0 39 -200 0 -201 0 7 -34z"/>
<path d="M9357 7993 c-4 -3 -7 -32 -7 -63 0 -38 -7 -70 -22 -100 -24 -47 -48
-63 -141 -95 -71 -25 -96 -64 -106 -165 -11 -107 -36 -138 -133 -166 -37 -10
-67 -28 -88 -50 -30 -29 -34 -41 -40 -111 -4 -43 -12 -88 -18 -100 -18 -33
-60 -62 -115 -78 -28 -8 -61 -22 -75 -31 -34 -23 -62 -90 -62 -154 0 -86 -36
-128 -132 -156 -88 -26 -128 -77 -128 -164 0 -97 -39 -148 -135 -175 -95 -28
-135 -85 -135 -194 0 -48 -29 -104 -62 -122 -11 -6 -41 -17 -67 -25 -92 -27
-131 -79 -131 -174 0 -85 -51 -150 -126 -165 -86 -16 -134 -68 -134 -146 0
-107 -40 -166 -131 -193 -100 -28 -139 -78 -139 -176 0 -85 -51 -150 -127
-165 -87 -16 -126 -62 -133 -158 l-5 -68 45 7 c96 14 145 62 155 151 11 102
53 155 135 169 100 16 136 53 153 155 20 112 53 150 145 165 88 14 135 67 146
162 11 97 53 143 144 158 84 13 142 74 142 149 1 52 31 119 65 141 14 9 51 23
81 30 100 23 130 56 145 159 14 102 55 146 147 161 49 8 95 35 117 68 9 14 20
55 25 90 12 100 53 145 146 160 50 9 97 37 119 70 9 14 21 55 25 91 4 36 16
77 25 91 22 33 68 60 117 68 92 15 135 61 146 159 13 101 46 138 146 161 99
23 130 58 144 165 13 96 48 132 146 155 99 23 130 58 144 165 10 68 30 104 75
131 l32 20 -256 0 c-141 0 -259 -3 -262 -7z"/>
<path d="M10612 7968 c-6 -18 -13 -46 -17 -63 -17 -76 -76 -125 -149 -125 -85
0 -147 -54 -166 -145 -18 -88 -79 -145 -155 -145 -84 0 -146 -55 -165 -145
-19 -91 -81 -145 -166 -145 -45 0 -106 -33 -127 -70 -9 -15 -22 -51 -28 -79
-18 -86 -82 -141 -163 -141 -91 0 -135 -47 -161 -174 -4 -16 -23 -46 -44 -67
-29 -29 -47 -39 -86 -44 -90 -12 -104 -16 -134 -44 -27 -25 -40 -57 -56 -135
-4 -16 -23 -46 -43 -67 -32 -32 -46 -38 -97 -43 -107 -12 -156 -52 -171 -140
-15 -95 -54 -132 -157 -150 -113 -19 -148 -51 -163 -144 -14 -88 -67 -135
-162 -146 -97 -11 -143 -53 -158 -144 -13 -84 -74 -142 -149 -142 -52 -1 -119
-31 -141 -65 -9 -14 -23 -51 -30 -81 -23 -100 -60 -133 -161 -146 -98 -11
-144 -54 -159 -146 -8 -49 -35 -95 -68 -117 -14 -9 -55 -21 -91 -25 -102 -13
-136 -44 -160 -145 l-13 -57 68 4 c95 5 132 34 160 126 27 94 71 132 152 132
103 0 163 45 192 142 26 89 79 128 176 128 88 0 132 35 160 130 28 95 72 130
160 130 96 0 160 47 181 132 21 91 83 138 179 138 85 0 132 36 157 120 30 104
74 140 168 140 40 0 69 6 96 22 47 26 61 46 82 118 26 90 84 130 187 130 78 0
126 42 151 130 26 91 76 130 169 130 96 0 144 39 173 140 26 88 88 130 191
130 47 0 60 4 90 30 22 20 41 50 52 83 37 115 64 137 181 147 100 9 135 37
163 128 27 94 71 132 152 132 103 0 163 45 192 142 26 89 79 128 176 128 88 0
132 35 160 130 28 95 72 130 160 130 28 0 65 6 83 14 41 17 84 63 92 99 l7 27
-380 0 -380 0 -10 -32z"/>
<path d="M12619 7984 c-26 -32 -71 -45 -154 -47 -104 -2 -128 -17 -171 -107
-17 -35 -46 -77 -65 -92 -30 -26 -40 -28 -114 -28 -113 0 -140 -16 -186 -110
-49 -101 -78 -120 -185 -120 -106 0 -136 -19 -184 -115 -48 -96 -78 -115 -183
-115 -109 0 -138 -19 -182 -115 -44 -95 -64 -107 -188 -115 -89 -6 -100 -9
-125 -33 -15 -15 -40 -55 -57 -90 -43 -88 -76 -108 -175 -106 -107 3 -134 -13
-183 -112 -49 -99 -89 -125 -180 -115 -49 5 -68 2 -101 -14 -47 -23 -65 -46
-90 -113 -11 -30 -31 -57 -54 -75 -32 -24 -44 -27 -122 -28 -109 0 -140 -19
-180 -108 -47 -102 -92 -130 -194 -121 -52 5 -67 3 -100 -17 -24 -14 -46 -38
-58 -63 -11 -22 -27 -56 -36 -75 -25 -52 -91 -83 -159 -74 -94 11 -155 -27
-190 -120 -11 -30 -32 -60 -54 -78 -33 -27 -43 -29 -125 -31 -96 -2 -137 -20
-161 -69 -6 -12 -21 -44 -33 -70 -31 -68 -68 -88 -164 -88 -110 0 -160 -31
-191 -120 -30 -85 -71 -110 -183 -110 -66 0 -85 -4 -113 -23 -33 -22 -39 -31
-79 -117 -31 -69 -58 -83 -170 -90 -56 -4 -105 -12 -118 -21 -28 -17 -55 -60
-72 -112 -8 -25 -26 -48 -52 -68 -37 -26 -48 -29 -120 -29 -114 0 -150 -22
-187 -116 l-20 -52 37 -6 c109 -18 158 5 211 101 48 88 86 107 194 98 76 -6
85 -5 117 17 19 13 50 51 70 87 50 88 78 102 197 99 111 -4 132 8 181 100 42
78 82 105 155 101 156 -7 172 0 224 97 51 95 101 121 200 103 49 -9 60 -8 101
13 39 19 53 34 82 88 29 54 43 69 82 89 43 21 54 22 104 13 100 -17 149 9 199
104 44 86 83 106 195 98 78 -6 88 -4 119 17 21 15 46 47 63 81 15 31 42 67 60
80 29 20 44 23 135 23 122 0 140 10 187 100 18 35 45 69 65 82 30 21 44 23
130 21 116 -4 139 9 186 98 18 35 44 68 65 82 32 22 42 23 120 18 111 -8 149
11 194 99 19 35 45 69 66 83 32 22 42 24 116 18 70 -5 85 -3 124 17 35 17 50
33 72 79 46 94 102 123 202 106 52 -9 62 -8 104 14 36 18 52 35 72 75 51 103
87 123 212 115 98 -6 134 13 171 91 26 55 75 106 105 109 9 0 58 2 109 2 88 1
93 2 123 31 17 17 38 46 46 65 36 84 92 114 198 104 55 -5 79 -3 102 9 37 19
67 53 83 94 7 17 23 41 37 54 24 22 24 23 24 246 l0 223 -84 0 c-64 0 -87 -4
-97 -16z"/>
<path d="M2 6419 l3 -263 34 -23 c40 -27 90 -30 151 -8 86 30 152 10 201 -62
57 -82 118 -100 225 -66 44 14 60 14 93 4 38 -11 53 -24 121 -103 47 -55 93
-65 180 -38 90 28 135 18 182 -42 58 -72 75 -86 117 -99 35 -10 50 -10 95 4
108 34 168 16 226 -68 49 -71 119 -92 197 -60 79 33 154 11 203 -60 18 -25 46
-55 63 -66 38 -23 101 -25 150 -4 77 32 142 9 209 -75 60 -74 102 -87 195 -59
106 33 127 25 236 -99 42 -47 93 -59 159 -37 104 34 166 17 221 -62 53 -75
125 -100 200 -68 46 19 110 19 146 0 16 -8 45 -37 65 -65 55 -77 117 -96 206
-65 86 30 152 10 201 -62 57 -82 118 -100 225 -66 79 24 117 10 188 -72 74
-84 107 -95 204 -65 88 28 138 16 185 -43 57 -71 74 -85 116 -98 35 -10 50
-10 95 4 107 34 161 19 222 -64 39 -53 82 -79 132 -79 27 0 122 28 122 36 0 2
-14 26 -31 54 -49 79 -98 97 -198 73 -64 -15 -68 -15 -114 5 -36 16 -55 34
-83 77 -48 76 -104 103 -177 86 -115 -26 -165 -9 -220 75 -46 70 -90 97 -147
90 -141 -18 -154 -18 -187 3 -18 11 -49 45 -69 75 -46 70 -87 91 -158 81 -148
-22 -183 -10 -240 80 -19 30 -49 61 -65 70 -36 18 -94 19 -155 3 -63 -17 -127
9 -163 66 -68 105 -113 127 -213 101 -99 -26 -149 -2 -213 101 -36 58 -97 82
-168 66 -112 -26 -170 -6 -218 77 -50 84 -95 99 -237 77 -71 -12 -115 11 -160
81 -49 77 -84 96 -159 88 -159 -18 -182 -10 -242 79 -55 84 -104 104 -196 80
-99 -25 -147 -6 -203 83 -48 74 -104 101 -177 84 -116 -26 -168 -9 -221 74
-58 90 -87 100 -241 81 -54 -7 -64 -5 -95 16 -19 13 -50 46 -67 73 -45 69 -83
88 -153 79 -157 -19 -187 -9 -244 81 -53 82 -112 102 -221 73 -45 -12 -50 -11
-118 17 -16 7 -17 -8 -15 -256z"/>
<path d="M12746 6662 c-32 -13 -46 -14 -82 -4 -60 16 -119 15 -154 -3 -16 -8
-45 -40 -64 -70 -58 -89 -94 -102 -242 -80 -68 10 -116 -13 -149 -69 -13 -23
-38 -55 -55 -71 -34 -32 -39 -33 -205 -23 -75 4 -102 -12 -151 -87 -54 -85
-99 -98 -240 -69 -54 10 -116 -25 -158 -89 -56 -89 -104 -108 -203 -83 -92 24
-141 4 -196 -80 -60 -89 -83 -97 -242 -79 -75 8 -109 -11 -158 -88 -43 -66
-90 -92 -153 -83 -24 3 -63 9 -87 12 -66 9 -109 -14 -152 -81 -59 -91 -109
-110 -224 -83 -68 15 -130 -7 -163 -60 -66 -108 -118 -133 -218 -107 -100 26
-145 4 -213 -101 -36 -57 -100 -83 -163 -66 -61 16 -119 15 -155 -3 -16 -9
-46 -40 -65 -70 -57 -90 -87 -100 -244 -81 -70 9 -108 -10 -153 -79 -17 -27
-48 -60 -67 -73 -37 -25 -36 -25 -185 -6 -63 7 -104 -18 -157 -97 -54 -82 -82
-89 -239 -63 -55 9 -111 -24 -154 -92 -27 -42 -47 -60 -82 -76 -46 -20 -50
-20 -114 -5 -100 24 -149 6 -198 -73 -17 -28 -31 -52 -31 -54 0 -8 95 -36 122
-36 50 0 94 26 128 75 58 84 118 102 226 68 45 -14 60 -14 95 -4 42 13 59 27
115 98 48 59 96 70 184 43 87 -27 133 -17 180 38 68 79 83 92 121 103 33 10
49 10 93 -4 107 -34 168 -16 225 66 49 72 115 92 201 62 88 -31 148 -12 204
64 21 28 51 58 67 66 36 19 100 19 146 0 74 -31 150 -6 197 65 52 78 116 97
222 63 67 -21 119 -8 161 39 109 123 130 132 236 99 99 -30 147 -13 208 76 40
58 101 81 167 64 131 -35 179 -23 239 61 55 75 115 94 203 63 88 -31 149 -11
204 66 59 81 114 95 238 59 43 -13 51 -12 92 6 28 12 60 39 88 74 62 77 102
90 197 60 88 -27 134 -18 181 38 68 79 83 92 121 103 33 10 49 10 93 -4 107
-34 168 -16 225 66 49 72 121 94 198 62 53 -22 114 -19 154 8 l34 23 3 262 c1
144 -1 262 -5 261 -5 -1 -25 -8 -47 -17z"/>
<path d="M0 5279 c0 -218 1 -236 18 -236 59 1 76 -6 120 -47 26 -24 57 -48 69
-55 38 -19 98 -13 165 19 34 16 72 30 83 30 31 -1 98 -35 125 -65 59 -64 129
-72 217 -25 31 17 67 30 80 30 40 0 96 -29 140 -72 34 -34 50 -42 90 -45 41
-4 60 0 111 26 91 46 133 40 209 -30 75 -69 125 -75 218 -29 91 45 139 39 210
-30 71 -69 124 -76 215 -30 91 46 144 39 215 -30 71 -69 122 -76 208 -30 89
47 145 40 220 -29 76 -70 113 -75 206 -30 91 45 143 39 209 -23 80 -75 140
-83 230 -31 35 21 52 25 97 21 48 -4 60 -10 103 -51 52 -48 115 -73 155 -61
12 3 41 17 64 30 73 42 156 30 213 -31 56 -60 130 -73 202 -35 99 52 151 46
230 -27 43 -41 55 -47 103 -51 45 -4 62 0 97 20 87 51 149 44 217 -22 72 -70
127 -77 226 -29 85 41 129 35 195 -27 77 -72 139 -83 221 -36 27 15 49 30 49
33 0 4 -22 27 -49 52 -66 62 -103 68 -187 33 -103 -42 -137 -34 -225 49 -82
78 -108 81 -245 25 -52 -22 -98 -6 -169 60 -76 70 -116 82 -185 56 -99 -38
-108 -40 -148 -28 -22 7 -60 34 -93 66 -67 66 -110 78 -179 52 -99 -39 -115
-41 -162 -23 -28 11 -58 33 -78 58 -58 72 -122 86 -212 44 -29 -14 -63 -25
-75 -25 -42 0 -101 31 -133 72 -58 71 -123 84 -212 43 -29 -14 -63 -25 -75
-25 -42 0 -101 31 -133 72 -35 43 -82 68 -127 68 -15 0 -57 -12 -93 -26 -60
-23 -71 -25 -111 -14 -31 9 -57 26 -89 61 -72 77 -119 86 -225 42 -59 -24 -68
-25 -107 -14 -29 9 -58 29 -88 62 -65 70 -134 88 -202 53 -91 -47 -150 -37
-218 36 -66 71 -134 89 -202 54 -87 -45 -150 -36 -212 30 -22 22 -51 49 -65
58 -34 24 -99 23 -152 -2 -84 -38 -161 -22 -216 44 -55 67 -129 83 -212 46
-81 -37 -152 -22 -206 42 -15 18 -39 41 -54 50 -36 24 -112 23 -161 -2 -43
-22 -109 -26 -143 -9 -12 6 -37 25 -54 42 l-33 31 0 -235z"/>
<path d="M12769 5484 c-53 -57 -128 -70 -199 -34 -49 25 -125 26 -161 2 -15
-9 -39 -32 -54 -50 -54 -64 -125 -79 -206 -42 -83 37 -157 21 -212 -46 -55
-66 -132 -82 -216 -44 -53 25 -118 26 -152 2 -14 -9 -43 -36 -65 -58 -62 -66
-125 -75 -212 -30 -68 35 -136 17 -202 -54 -68 -73 -127 -83 -218 -36 -36 18
-103 21 -135 5 -12 -6 -42 -33 -67 -59 -30 -32 -60 -52 -88 -61 -39 -11 -48
-10 -107 14 -106 44 -153 35 -225 -42 -32 -35 -58 -52 -90 -61 -40 -11 -50
-10 -107 14 -101 42 -166 30 -219 -39 -30 -39 -92 -74 -131 -75 -12 0 -48 11
-79 25 -93 41 -156 28 -214 -43 -32 -41 -91 -72 -133 -72 -12 0 -46 11 -75 25
-90 42 -154 28 -212 -44 -20 -25 -50 -47 -78 -58 -47 -18 -63 -16 -162 23 -69
26 -112 14 -179 -52 -72 -70 -115 -85 -180 -60 -135 51 -157 48 -246 -34 -71
-66 -117 -82 -169 -60 -137 56 -163 53 -245 -25 -88 -83 -122 -91 -225 -49
-84 35 -121 29 -187 -33 -27 -25 -49 -49 -49 -53 0 -15 100 -60 133 -60 51 0
78 13 135 63 71 63 112 69 197 28 99 -48 148 -42 224 28 45 43 107 66 144 56
12 -4 44 -18 70 -32 40 -21 59 -24 103 -21 48 4 61 10 97 45 23 22 53 46 66
53 40 21 102 15 159 -15 83 -43 153 -33 212 30 56 60 128 71 208 31 26 -13 57
-26 69 -30 39 -12 103 13 155 61 43 41 55 47 103 51 45 4 61 0 97 -21 66 -39
109 -43 162 -18 24 12 51 32 59 45 20 30 76 56 120 56 19 0 64 -13 99 -30 91
-43 132 -38 198 24 82 77 134 86 227 36 86 -46 137 -39 208 30 71 69 124 76
215 30 91 -46 138 -40 213 29 76 70 124 77 210 31 89 -47 145 -40 220 29 76
70 118 76 207 31 90 -45 152 -38 210 25 30 33 94 64 131 65 14 0 51 -13 82
-30 88 -47 158 -39 217 25 27 30 94 64 125 65 11 0 49 -14 83 -30 102 -48 161
-39 232 34 34 36 99 62 126 52 12 -5 14 33 14 229 0 129 -1 235 -3 235 -2 0
-14 -12 -28 -26z"/>
<path d="M6390 5333 c0 -10 -16 -43 -35 -73 -54 -85 -48 -142 24 -230 l21 -25
21 25 c72 88 78 145 24 230 -19 30 -35 63 -35 73 0 9 -4 17 -10 17 -5 0 -10
-8 -10 -17z"/>
<path d="M6390 4940 c0 -27 5 -50 10 -50 6 0 10 23 10 50 0 28 -4 50 -10 50
-5 0 -10 -22 -10 -50z"/>
<path d="M6246 4933 c10 -58 23 -75 24 -31 0 42 -8 68 -22 68 -5 0 -6 -16 -2
-37z"/>
<path d="M6536 4954 c-3 -9 -6 -32 -6 -52 1 -44 14 -27 24 31 7 37 -6 52 -18
21z"/>
<path d="M6100 4925 c0 -9 8 -32 17 -53 14 -32 17 -34 20 -15 2 12 -3 35 -12
52 -17 34 -25 39 -25 16z"/>
<path d="M6676 4912 c-9 -18 -15 -43 -13 -55 3 -19 6 -16 21 16 23 52 17 84
-8 39z"/>
<path d="M5970 4858 c0 -20 43 -84 47 -71 5 13 -21 68 -37 78 -5 3 -10 0 -10
-7z"/>
<path d="M6377 4843 c-35 -59 -32 -58 -70 -17 l-35 38 -24 -47 -24 -48 -40 29
-41 30 -12 -49 c-7 -27 -15 -49 -17 -49 -3 0 -22 9 -44 20 -22 11 -42 20 -45
20 -3 0 -5 -23 -5 -50 0 -50 0 -50 -27 -44 -16 4 -39 11 -52 16 -24 9 -24 8
-18 -44 l5 -53 -50 4 c-50 3 -51 3 -44 -23 3 -14 9 -37 12 -51 4 -14 2 -25 -2
-24 -5 1 -28 1 -52 0 l-43 -1 14 -27 c27 -53 30 -73 10 -73 -10 -1 -30 -6 -46
-13 l-27 -12 25 -37 c14 -20 25 -39 25 -41 0 -2 -18 -12 -40 -22 -22 -10 -40
-21 -40 -24 0 -3 14 -20 32 -38 17 -18 30 -34 27 -36 -2 -2 -21 -15 -42 -29
l-37 -25 40 -28 41 -28 -36 -37 -35 -36 45 -22 c48 -23 48 -23 13 -74 -10 -14
-18 -28 -18 -31 0 -3 18 -8 40 -12 22 -4 42 -11 45 -16 3 -4 -3 -26 -15 -48
l-20 -40 51 -7 c55 -7 52 0 33 -79 -6 -24 -5 -24 44 -18 l49 5 -5 -51 -5 -52
29 7 c16 4 39 11 52 15 21 8 22 6 22 -41 0 -56 6 -59 60 -30 l35 18 15 -49 15
-50 41 30 41 31 19 -43 c10 -23 19 -44 21 -46 2 -3 20 12 41 31 l37 37 25 -40
c13 -21 27 -39 30 -39 3 0 17 18 30 39 l25 40 37 -37 c21 -19 39 -34 41 -31 2
2 11 23 21 46 l19 43 41 -31 41 -30 15 50 15 49 35 -18 c54 -29 60 -26 60 30
0 47 1 49 23 41 12 -4 35 -11 51 -15 l29 -7 -5 52 -5 51 49 -5 c49 -6 50 -6
44 18 -19 80 -22 72 33 80 l50 7 -20 39 c-11 22 -17 44 -14 48 3 5 23 12 45
16 22 4 40 9 40 11 0 2 -12 22 -26 44 -15 22 -25 42 -23 43 2 2 23 11 47 22
l43 18 -37 38 -36 37 41 28 41 27 -37 25 c-21 14 -40 27 -42 29 -3 2 10 18 27
36 18 18 32 35 32 38 0 3 -18 14 -40 24 -22 10 -40 20 -40 22 0 2 11 21 25 41
l25 37 -27 12 c-16 7 -36 12 -45 13 -23 0 -23 12 2 60 l20 40 -42 1 c-24 1
-47 1 -52 0 -4 -1 -5 10 -2 25 4 14 9 39 12 53 l6 28 -50 -7 -50 -6 5 53 6 53
-49 -15 c-27 -8 -50 -15 -51 -15 -2 0 -3 23 -3 50 0 28 -2 50 -5 50 -3 0 -23
-9 -45 -20 -22 -11 -41 -20 -44 -20 -2 0 -10 22 -17 50 l-13 49 -40 -30 -40
-29 -24 47 -24 47 -35 -38 c-38 -41 -35 -42 -70 17 -10 15 -20 27 -23 27 -3 0
-13 -12 -23 -27z m46 -222 l23 26 17 -29 17 -29 29 20 29 21 11 -30 c11 -34
18 -36 49 -14 23 16 26 14 35 -31 2 -11 9 -18 18 -16 8 2 22 6 32 8 14 4 17
-1 17 -27 0 -31 1 -32 36 -28 36 4 36 4 31 -29 -6 -32 -5 -33 29 -33 32 0 35
-2 28 -22 -14 -44 -10 -53 24 -56 l32 -3 -17 -30 c-14 -24 -24 -29 -56 -29
-64 0 -153 -58 -112 -74 21 -8 87 14 123 41 30 22 36 24 63 13 l30 -13 -23
-24 c-22 -24 -22 -25 -4 -38 10 -8 24 -16 30 -19 6 -3 -1 -15 -17 -29 l-29
-24 28 -22 c29 -23 29 -23 -15 -50 -11 -7 -10 -13 5 -35 15 -24 15 -29 3 -37
-8 -5 -20 -9 -26 -9 -17 0 -16 -21 2 -47 15 -21 14 -22 -20 -29 -21 -4 -34
-11 -32 -18 20 -54 20 -56 -15 -56 -28 0 -37 6 -52 35 -21 39 -71 75 -105 75
-11 0 -21 2 -21 4 0 2 -3 11 -6 19 -3 9 3 16 15 20 14 3 19 10 15 21 -4 10 0
18 10 22 12 5 14 10 6 19 -8 10 -7 16 7 24 14 8 15 12 6 22 -9 9 -10 16 -2 26
8 9 8 17 0 27 -9 10 -9 16 -1 21 8 5 8 11 -1 21 -6 7 -9 20 -6 28 3 8 -1 17
-9 20 -10 4 -13 13 -9 26 5 14 2 20 -9 20 -10 0 -16 9 -16 21 0 15 -5 19 -15
15 -10 -4 -15 1 -15 14 0 13 -7 20 -20 20 -11 0 -20 7 -20 16 0 11 -6 14 -20
9 -15 -5 -20 -2 -20 10 0 12 -5 15 -16 11 -9 -4 -23 -1 -30 5 -11 9 -17 9 -28
0 -11 -9 -15 -8 -20 5 -5 13 -9 14 -21 4 -11 -9 -18 -10 -29 -1 -11 9 -15 8
-20 -4 -4 -11 -13 -14 -26 -10 -14 5 -20 2 -20 -10 0 -12 -6 -15 -20 -10 -15
5 -20 2 -20 -10 0 -12 -6 -16 -20 -12 -15 4 -20 0 -20 -14 0 -30 -33 -22 -55
14 -23 36 -79 77 -107 77 -17 0 -18 -2 -3 -30 17 -33 52 -59 99 -75 34 -11 45
-32 22 -41 -9 -3 -28 8 -50 30 -34 33 -109 66 -122 53 -11 -11 17 -47 49 -64
18 -9 48 -19 67 -22 36 -6 58 -41 25 -41 -12 0 -14 -4 -6 -19 8 -15 7 -20 -5
-25 -12 -5 -14 -9 -5 -20 9 -10 7 -17 -5 -26 -14 -12 -14 -14 1 -23 13 -7 14
-11 4 -24 -10 -12 -10 -16 1 -23 7 -4 10 -15 7 -24 -4 -10 -1 -19 8 -23 10 -3
13 -12 10 -24 -4 -13 -1 -19 9 -19 9 0 16 -9 16 -20 0 -11 7 -20 15 -20 8 0
15 -7 15 -15 0 -8 9 -15 20 -15 11 0 20 -7 20 -16 0 -11 6 -14 20 -9 15 5 20
2 20 -10 0 -13 6 -16 21 -12 12 3 22 0 26 -9 4 -11 8 -12 20 -3 10 9 17 9 25
1 8 -8 15 -9 25 -1 9 8 17 8 27 0 11 -9 15 -8 20 4 4 13 10 14 26 5 16 -9 20
-8 20 5 0 32 33 10 45 -30 14 -50 42 -92 67 -106 27 -15 31 -7 18 39 -7 27
-24 53 -51 76 -27 23 -39 40 -36 50 4 9 13 13 22 10 10 -4 15 0 15 15 0 12 2
21 4 21 18 0 39 -17 56 -45 12 -20 40 -43 68 -56 53 -25 62 -35 62 -66 0 -19
-4 -21 -35 -16 -35 6 -35 5 -35 -31 0 -33 -2 -36 -19 -26 -35 18 -51 12 -51
-20 0 -35 -1 -35 -41 -15 -29 16 -30 16 -40 -15 -13 -36 -16 -36 -45 -9 l-22
21 -18 -33 -17 -33 -24 29 -25 28 -23 -28 -22 -29 -17 33 -18 33 -22 -21 c-29
-27 -32 -27 -45 9 -10 31 -11 31 -40 15 -40 -20 -41 -20 -41 15 0 32 -16 38
-51 20 -17 -10 -19 -7 -19 26 0 36 0 37 -35 31 -31 -5 -35 -3 -35 16 0 31 10
43 50 60 38 15 90 69 90 93 0 19 -7 18 -55 -10 -22 -14 -50 -41 -60 -60 -17
-30 -25 -36 -53 -36 -23 0 -33 4 -29 13 19 52 19 54 -18 61 -34 7 -35 8 -20
29 18 26 19 47 3 47 -7 0 -19 4 -27 9 -12 8 -12 13 3 36 19 29 19 29 -24 54
-12 8 -10 13 14 32 l28 22 -29 24 c-16 14 -23 26 -17 29 6 3 20 11 30 19 18
13 18 14 -4 38 l-23 24 30 13 c27 11 33 9 66 -16 41 -31 141 -49 133 -23 -8
24 -81 59 -122 59 -25 0 -43 6 -52 18 -21 27 -16 39 17 46 19 4 29 11 26 18
-21 56 -20 58 17 58 34 0 35 1 30 30 -6 29 -5 30 30 30 34 0 36 2 36 31 0 25
4 30 18 26 9 -2 23 -6 31 -8 9 -2 16 5 18 16 9 45 12 47 35 31 31 -22 38 -20
49 14 l11 30 29 -21 29 -20 18 30 17 30 22 -27 23 -27 23 26z"/>
<path d="M6380 4554 c-18 -52 4 -145 31 -129 15 10 21 93 9 129 -15 45 -25 45
-40 0z"/>
<path d="M6306 4547 c-9 -49 18 -127 45 -127 15 0 10 99 -6 130 -20 39 -31 38
-39 -3z"/>
<path d="M6455 4550 c-16 -32 -20 -107 -6 -129 18 -29 55 79 44 131 -7 36 -19
36 -38 -2z"/>
<path d="M6234 4546 c-13 -34 38 -146 67 -146 25 0 -3 109 -37 141 -21 20 -24
20 -30 5z"/>
<path d="M6532 4537 c-35 -38 -50 -137 -20 -137 5 0 20 24 33 53 38 80 30 130
-13 84z"/>
<path d="M6166 4522 c-10 -17 14 -80 43 -111 50 -54 68 -33 32 37 -22 43 -66
87 -75 74z"/>
<path d="M6598 4503 c-33 -36 -48 -66 -48 -97 0 -34 13 -33 44 4 28 34 50 100
38 112 -5 5 -20 -4 -34 -19z"/>
<path d="M6104 4453 c7 -28 76 -103 96 -103 32 0 -17 92 -63 117 -33 19 -40
16 -33 -14z"/>
<path d="M6663 4467 c-46 -26 -94 -117 -61 -117 19 0 78 58 89 88 17 44 11 51
-28 29z"/>
<path d="M6704 4410 c-44 -18 -95 -100 -61 -100 23 0 86 50 102 80 14 28 14
30 -2 29 -10 0 -27 -4 -39 -9z"/>
<path d="M6740 4349 c-27 -11 -80 -58 -80 -71 0 -16 53 -8 86 13 30 18 54 46
54 63 0 9 -32 6 -60 -5z"/>
<path d="M5955 4211 c-18 -7 -18 -8 5 -24 35 -22 75 -30 115 -23 46 9 44 20
-5 40 -43 17 -83 19 -115 7z"/>
<path d="M6730 4202 c-48 -24 -40 -37 23 -37 63 0 127 32 92 46 -34 13 -78 10
-115 -9z"/>
<path d="M5955 4136 c-17 -13 -18 -17 -5 -26 22 -15 113 -12 136 4 27 20 13
29 -54 34 -41 2 -63 -1 -77 -12z"/>
<path d="M6723 4140 c-27 -11 -30 -25 -7 -34 25 -10 118 -7 134 4 41 28 -70
53 -127 30z"/>
<path d="M5982 4070 c-53 -24 -47 -40 16 -40 55 0 125 35 101 51 -23 14 -71
10 -117 -11z"/>
<path d="M6713 4080 c-31 -13 -29 -19 12 -36 39 -16 121 -19 130 -4 15 23
-102 57 -142 40z"/>
<path d="M6025 4016 c-16 -7 -39 -23 -49 -35 l-19 -21 45 0 c45 0 107 31 116
58 5 16 -54 15 -93 -2z"/>
<path d="M6687 4023 c-13 -12 -7 -19 32 -41 23 -13 56 -22 81 -22 l43 0 -19
21 c-32 37 -117 63 -137 42z"/>
<path d="M6080 3969 c-27 -11 -80 -58 -80 -71 0 -16 53 -8 86 13 30 18 54 46
54 63 0 9 -32 6 -60 -5z"/>
<path d="M6656 3972 c-6 -9 21 -36 64 -65 26 -18 80 -23 80 -8 0 12 -68 71
-83 71 -7 0 -22 3 -33 6 -12 3 -24 2 -28 -4z"/>
<path d="M6157 3870 c-34 -29 -65 -85 -54 -96 21 -21 89 45 102 99 9 36 -5 35
-48 -3z"/>
<path d="M6590 3885 c0 -41 62 -115 96 -115 36 0 -11 82 -64 113 -29 17 -32
17 -32 2z"/>
<path d="M6213 3842 c-30 -31 -61 -107 -50 -119 10 -10 46 18 67 52 13 22 20
47 18 67 l-3 33 -32 -33z"/>
<path d="M6278 3833 c-38 -42 -60 -125 -37 -139 27 -16 71 86 60 134 -6 23 -7
23 -23 5z"/>
<path d="M6494 3798 c7 -44 41 -108 57 -108 31 0 16 88 -21 128 -32 34 -44 28
-36 -20z"/>
<path d="M6324 3806 c-17 -26 -25 -118 -11 -132 17 -17 41 27 45 84 5 67 -8
86 -34 48z"/>
<path d="M6382 3800 c-15 -41 -15 -68 -1 -109 14 -40 25 -39 39 5 13 39 7 90
-14 119 -12 17 -14 16 -24 -15z"/>
<path d="M6438 3808 c-9 -58 27 -156 49 -134 14 13 7 90 -11 124 -19 37 -33
41 -38 10z"/>
<path d="M6802 4840 c-23 -37 -29 -66 -12 -55 16 10 42 65 37 78 -2 7 -14 -4
-25 -23z"/>
<path d="M5840 4782 c0 -14 58 -77 65 -70 9 8 -23 56 -46 69 -11 5 -19 6 -19
1z"/>
<path d="M6920 4760 c-30 -33 -38 -50 -21 -50 14 0 65 69 58 77 -4 3 -20 -9
-37 -27z"/>
<path d="M5740 4671 c0 -10 61 -61 74 -61 4 0 2 8 -3 18 -11 21 -71 57 -71 43z"/>
<path d="M7025 4660 c-29 -19 -53 -50 -38 -50 13 0 79 57 73 64 -3 3 -19 -3
-35 -14z"/>
<path d="M5661 4544 c12 -14 61 -44 74 -44 17 0 0 19 -34 38 -46 26 -58 28
-40 6z"/>
<path d="M7100 4539 c-43 -26 -45 -28 -38 -35 8 -7 61 20 77 40 18 22 2 20
-39 -5z"/>
<path d="M5595 4411 c8 -13 73 -34 88 -28 6 3 -5 12 -25 21 -41 18 -72 21 -63
7z"/>
<path d="M7140 4403 c-19 -8 -29 -17 -23 -20 15 -6 80 15 88 28 9 14 -26 10
-65 -8z"/>
<path d="M137 4384 c-15 -8 -44 -26 -64 -39 -19 -14 -44 -25 -54 -25 -18 0
-19 -12 -19 -195 l0 -195 24 -6 c14 -3 48 -21 77 -40 74 -47 130 -47 192 0 64
49 81 56 129 56 32 0 58 -9 102 -37 69 -42 136 -50 177 -20 97 71 113 79 160
74 31 -2 61 -15 95 -38 42 -29 58 -34 105 -34 50 0 62 4 104 38 86 66 136 68
229 8 36 -22 62 -31 94 -31 48 0 69 9 124 53 27 21 52 31 88 35 45 4 56 0 118
-37 37 -22 80 -41 95 -41 37 0 84 21 130 58 68 55 119 54 208 -3 40 -26 64
-35 97 -35 49 0 65 7 130 57 43 32 51 35 102 31 44 -3 66 -11 103 -38 64 -46
126 -47 187 -4 110 77 157 81 238 23 40 -29 55 -34 102 -34 38 0 64 6 80 18
14 10 40 29 59 42 52 38 120 34 191 -10 76 -49 138 -49 201 -2 94 72 134 75
224 20 49 -31 69 -38 111 -38 45 0 57 5 108 44 51 40 64 45 110 45 43 1 59 -5
106 -36 73 -51 126 -52 194 -5 75 51 88 57 136 57 35 0 57 -8 95 -33 28 -19
63 -37 78 -41 41 -10 100 10 147 49 70 59 124 58 220 -1 84 -51 129 -47 213
20 l38 30 -28 23 c-46 39 -112 66 -149 60 -18 -3 -56 -22 -86 -41 -71 -49
-125 -49 -192 -3 -75 51 -88 57 -136 57 -35 0 -57 -8 -96 -34 -89 -60 -145
-56 -235 16 -35 28 -49 33 -93 33 -42 0 -62 -7 -111 -37 -90 -56 -130 -53
-224 19 -61 46 -127 47 -194 2 -85 -56 -147 -57 -216 -1 -58 46 -80 55 -131
50 -32 -3 -62 -15 -93 -38 -81 -57 -127 -53 -238 25 -63 44 -118 42 -190 -7
-45 -32 -62 -38 -106 -38 -43 0 -59 5 -96 34 -64 49 -81 56 -130 56 -31 0 -55
-8 -83 -26 -97 -67 -147 -67 -233 -1 -46 35 -60 41 -105 41 -42 1 -61 -5 -111
-36 -90 -56 -138 -52 -229 21 -57 46 -120 44 -200 -6 -89 -55 -141 -50 -230
21 -32 26 -46 31 -95 31 -48 0 -63 -5 -105 -34 -33 -23 -64 -36 -95 -39 -41
-3 -52 0 -96 32 -107 78 -146 81 -243 22 -79 -49 -133 -50 -195 -2 -64 49 -81
56 -130 56 -31 0 -55 -8 -83 -26 -92 -63 -153 -67 -221 -12 -71 57 -132 71
-186 42z"/>
<path d="M12545 4386 c-16 -7 -47 -27 -69 -44 -67 -55 -116 -53 -210 7 -37 23
-62 31 -95 31 -45 0 -61 -7 -140 -65 -51 -38 -110 -34 -183 11 -97 59 -136 56
-243 -22 -44 -32 -55 -35 -96 -32 -31 3 -62 16 -95 39 -42 29 -57 34 -105 34
-49 0 -63 -5 -95 -31 -88 -70 -142 -75 -231 -20 -47 29 -68 36 -109 36 -45 0
-58 -5 -104 -42 -41 -32 -62 -42 -101 -46 -44 -4 -56 0 -107 31 -100 62 -148
61 -225 -2 -77 -64 -134 -63 -231 3 -28 18 -52 26 -83 26 -50 0 -66 -7 -131
-57 -43 -32 -51 -35 -102 -31 -44 3 -66 11 -104 38 -65 47 -123 48 -185 5
-111 -78 -157 -83 -238 -24 -58 41 -133 50 -174 22 -15 -10 -44 -30 -65 -45
-63 -43 -119 -41 -194 7 -76 49 -138 49 -201 2 -94 -72 -134 -75 -224 -19 -49
30 -69 37 -111 37 -44 0 -58 -5 -93 -33 -91 -73 -145 -76 -237 -15 -48 32 -59
35 -107 31 -45 -4 -63 -11 -101 -43 -39 -32 -57 -39 -102 -43 -50 -4 -59 -1
-110 33 -31 20 -71 39 -89 42 -36 6 -102 -21 -148 -60 l-28 -23 38 -30 c84
-67 129 -71 213 -20 96 59 150 60 220 1 79 -66 137 -68 225 -9 38 26 60 34 95
34 48 0 61 -6 136 -57 67 -46 121 -46 192 3 88 59 143 55 233 -18 35 -28 49
-33 93 -33 42 0 62 7 111 38 90 55 130 52 224 -20 61 -46 127 -47 194 -2 25
16 59 34 76 39 38 11 97 -3 130 -29 56 -45 73 -54 114 -58 33 -4 54 0 86 18
24 13 57 32 74 41 58 32 98 23 197 -46 61 -43 123 -42 187 4 37 27 59 35 103
38 51 4 59 1 102 -31 65 -50 81 -57 128 -57 30 0 59 11 107 40 37 22 80 40 95
40 36 0 89 -22 107 -44 8 -10 33 -27 55 -38 52 -27 99 -20 173 26 88 54 123
51 229 -21 67 -46 119 -45 198 4 89 55 141 50 230 -21 32 -26 46 -31 95 -31
48 0 63 5 106 35 41 29 59 35 101 35 50 0 59 -4 153 -72 41 -30 108 -22 177
20 75 46 133 50 185 12 79 -58 95 -65 139 -65 35 0 58 8 99 34 29 19 63 37 77
40 l24 6 0 195 c0 184 -1 195 -19 195 -10 0 -43 16 -72 36 -60 42 -117 52
-164 30z"/>
<path d="M5556 4270 c6 -6 31 -14 55 -17 34 -4 41 -3 33 7 -6 6 -31 14 -55 17
-34 4 -41 3 -33 -7z"/>
<path d="M7170 4268 c-16 -6 -20 -12 -12 -15 18 -7 80 6 87 17 8 13 -43 12
-75 -2z"/>
<path d="M5540 4120 c20 -13 87 -13 95 0 4 6 -16 10 -52 10 -41 0 -54 -3 -43
-10z"/>
<path d="M7170 4120 c8 -5 29 -10 45 -10 17 0 37 5 45 10 11 7 -3 10 -45 10
-42 0 -56 -3 -45 -10z"/>
<path d="M5341 4019 c-14 -5 -44 -28 -68 -50 -75 -69 -131 -76 -220 -29 -86
46 -137 39 -208 -30 -71 -69 -124 -76 -215 -30 -91 46 -144 39 -215 -30 -71
-69 -122 -76 -208 -30 -89 47 -145 40 -220 -29 -76 -70 -118 -76 -209 -30 -51
26 -70 30 -111 26 -40 -3 -56 -11 -90 -45 -44 -43 -100 -72 -140 -72 -13 0
-49 14 -80 30 -88 47 -158 39 -217 -25 -27 -30 -94 -64 -125 -65 -11 0 -49 14
-83 30 -67 31 -127 38 -165 19 -12 -6 -40 -28 -62 -49 -67 -64 -134 -71 -215
-21 -39 23 -117 29 -153 10 -12 -7 -43 -31 -69 -55 -43 -40 -52 -44 -99 -44
-37 0 -64 7 -93 24 -23 13 -54 26 -69 30 -37 9 -99 -9 -123 -35 -76 -86 -144
-99 -249 -48 -85 41 -129 35 -194 -26 -25 -23 -56 -47 -68 -54 -39 -20 -100
-13 -164 20 -81 43 -132 36 -198 -26 -80 -75 -127 -82 -227 -34 -87 42 -133
36 -202 -26 -83 -74 -125 -81 -217 -35 -93 46 -141 40 -210 -25 -43 -42 -90
-65 -130 -65 l-25 0 0 -236 0 -235 33 35 c59 62 112 70 201 31 31 -14 67 -25
79 -25 38 1 103 37 131 73 31 41 80 67 125 67 18 0 59 -12 93 -26 87 -36 124
-28 195 43 83 83 121 90 227 47 60 -25 68 -26 111 -14 34 10 56 25 83 56 61
74 135 93 210 55 90 -44 146 -34 215 39 26 28 59 55 73 60 38 15 91 12 126 -6
93 -48 152 -37 227 41 70 75 109 81 231 36 80 -29 117 -18 190 54 49 49 64 58
103 62 25 3 60 0 79 -7 18 -7 48 -18 67 -25 57 -21 107 -3 173 62 52 52 61 57
111 61 41 3 63 -1 95 -17 26 -13 60 -21 92 -21 50 0 54 2 116 62 59 57 68 62
117 66 42 3 63 -1 97 -18 34 -17 55 -21 97 -18 50 4 58 9 113 63 55 54 63 59
113 63 41 3 63 -1 95 -17 26 -13 60 -21 92 -21 49 0 55 3 113 59 88 84 125 92
229 47 79 -34 144 -16 209 58 59 66 130 77 216 33 40 -21 99 -22 137 -2 16 8
46 35 67 59 60 68 128 78 217 32 39 -20 94 -21 137 0 29 13 102 91 94 98 -2 2
-27 15 -56 30 -55 27 -91 31 -132 15z"/>
<path d="M7325 4003 c-27 -14 -52 -27 -54 -29 -8 -7 65 -85 94 -98 43 -21 98
-20 137 0 90 47 148 37 220 -37 26 -27 59 -54 74 -59 38 -15 91 -12 126 6 92
47 147 37 226 -42 74 -74 111 -80 232 -35 77 27 126 15 179 -45 68 -78 130
-92 222 -53 37 16 62 20 100 17 46 -5 56 -11 109 -63 55 -54 63 -59 113 -63
42 -3 63 1 97 18 34 17 55 21 97 18 50 -4 58 -9 113 -63 55 -54 63 -59 113
-63 42 -3 63 1 97 18 34 17 55 21 97 18 50 -4 58 -9 113 -63 53 -52 63 -58
109 -63 38 -3 64 1 103 18 38 16 64 21 100 18 43 -5 55 -12 112 -67 61 -58 67
-61 114 -61 29 0 71 9 99 21 34 15 62 20 96 16 43 -4 55 -11 105 -60 78 -76
119 -87 205 -52 107 42 157 31 229 -50 61 -69 121 -78 210 -34 76 38 143 20
209 -55 27 -31 51 -47 84 -56 43 -12 51 -11 111 14 107 43 146 35 226 -48 69
-70 109 -79 196 -42 101 43 145 34 220 -43 30 -31 62 -53 89 -61 38 -12 49
-11 100 9 32 13 68 25 80 28 44 10 93 -7 134 -48 l39 -39 0 235 0 235 -28 0
c-36 0 -97 32 -122 63 -25 32 -79 57 -122 57 -18 0 -60 -14 -93 -30 -91 -46
-136 -39 -212 31 -74 68 -117 75 -208 29 -63 -31 -121 -38 -158 -19 -12 7 -43
31 -68 55 -66 61 -117 67 -198 25 -64 -33 -125 -40 -164 -20 -12 7 -43 31 -68
54 -65 61 -109 67 -194 26 -103 -50 -156 -42 -234 36 -35 35 -99 58 -134 48
-12 -4 -44 -18 -70 -32 -40 -21 -59 -24 -103 -21 -48 4 -61 10 -97 45 -23 22
-52 46 -64 52 -36 19 -114 13 -153 -10 -81 -50 -144 -44 -213 20 -23 21 -52
43 -64 50 -38 19 -98 13 -165 -19 -34 -16 -72 -30 -83 -30 -31 1 -98 35 -125
65 -59 64 -129 72 -217 25 -31 -16 -67 -30 -80 -30 -40 0 -96 29 -140 72 -34
34 -50 42 -90 45 -41 4 -60 0 -111 -26 -91 -46 -133 -40 -209 30 -75 69 -131
76 -220 29 -86 -46 -137 -39 -208 30 -71 69 -124 76 -215 30 -91 -46 -144 -39
-215 30 -71 69 -122 76 -208 30 -89 -47 -145 -40 -220 29 -74 68 -121 76 -202
34z"/>
<path d="M5580 3987 c-26 -7 -30 -11 -17 -15 27 -6 87 7 87 18 0 12 -25 11
-70 -3z"/>
<path d="M7150 3992 c0 -12 34 -22 75 -22 22 1 26 3 15 9 -25 15 -90 24 -90
13z"/>
<path d="M5637 3855 c-40 -14 -53 -22 -46 -29 5 -5 77 19 86 28 13 13 -4 14
-40 1z"/>
<path d="M7110 3866 c0 -8 38 -27 71 -36 37 -11 38 4 2 18 -43 17 -73 24 -73
18z"/>
<path d="M5403 3849 c-17 -5 -44 -23 -60 -41 -109 -124 -130 -132 -236 -99
-93 28 -135 15 -196 -59 -70 -87 -129 -108 -208 -75 -49 21 -112 19 -150 -4
-17 -11 -45 -41 -63 -66 -49 -71 -124 -93 -203 -60 -77 32 -149 10 -198 -62
-57 -82 -118 -100 -225 -66 -45 14 -60 14 -95 4 -42 -13 -59 -27 -117 -99 -47
-60 -92 -70 -182 -42 -87 27 -133 17 -180 -38 -68 -79 -83 -92 -121 -103 -33
-10 -49 -10 -93 4 -107 34 -168 16 -225 -66 -49 -72 -115 -92 -201 -62 -88 31
-148 12 -203 -63 -60 -84 -108 -96 -239 -61 -66 17 -127 -6 -167 -64 -62 -90
-108 -106 -212 -75 -96 29 -128 19 -203 -67 -72 -82 -111 -96 -190 -72 -62 20
-121 22 -156 4 -13 -7 -41 -34 -62 -62 -60 -80 -127 -103 -205 -70 -49 21
-112 19 -150 -4 -17 -11 -45 -41 -63 -66 -49 -72 -113 -91 -200 -60 -86 30
-152 10 -201 -62 -57 -82 -118 -100 -225 -66 -61 19 -112 10 -152 -27 -22 -20
-22 -25 -22 -281 l0 -260 22 15 c26 19 91 21 154 5 82 -21 145 15 196 110 12
21 34 39 65 53 46 20 49 20 119 4 71 -17 74 -17 118 2 33 15 53 34 80 75 58
92 86 101 241 83 76 -9 112 9 158 79 17 27 48 60 67 73 30 21 42 23 90 17 141
-17 144 -16 178 4 17 12 48 46 68 77 25 39 47 60 72 71 36 15 45 15 172 -2 55
-8 105 16 137 66 47 72 57 82 100 101 43 19 46 19 117 2 73 -17 74 -17 119 5
31 15 55 37 78 73 50 77 79 94 147 89 157 -9 179 -7 206 18 15 14 38 44 52 68
33 56 91 87 148 79 166 -24 186 -18 242 70 19 30 50 64 67 75 33 20 60 21 183
3 57 -8 114 22 147 78 14 24 37 54 52 68 28 26 50 28 207 19 69 -5 96 12 150
93 29 44 47 60 82 73 43 16 49 16 115 0 67 -16 71 -16 115 3 34 16 54 34 81
76 58 91 85 100 240 82 76 -9 112 9 158 79 17 27 48 60 67 73 30 21 42 23 90
17 149 -17 143 -18 180 7 19 13 50 46 67 73 56 85 80 92 243 70 61 -8 106 16
147 80 18 27 33 52 33 55 0 6 -111 41 -125 39 -6 0 -24 -5 -42 -10z"/>
<path d="M7283 3842 c-29 -9 -53 -19 -53 -22 0 -3 15 -28 33 -55 41 -64 86
-88 147 -80 163 22 187 15 243 -70 17 -27 48 -60 67 -73 36 -25 56 -25 172 -6
21 3 49 3 62 0 35 -9 84 -53 106 -96 11 -21 36 -48 55 -60 32 -20 44 -22 98
-15 156 20 184 11 242 -81 27 -42 47 -60 81 -76 44 -19 48 -19 115 -3 66 16
72 16 115 0 35 -13 53 -29 82 -73 54 -81 81 -98 150 -93 157 9 179 7 207 -19
15 -14 38 -44 52 -68 33 -56 90 -86 147 -78 132 19 150 19 185 -6 19 -12 47
-43 61 -68 14 -25 42 -56 61 -68 35 -25 53 -25 185 -6 57 8 115 -23 148 -79
14 -24 37 -54 52 -68 27 -25 49 -27 206 -18 68 5 97 -12 147 -89 23 -36 47
-58 78 -73 45 -22 46 -22 119 -5 71 17 74 17 118 -2 33 -15 54 -35 83 -78 48
-72 91 -97 153 -89 138 18 143 18 178 -1 19 -10 49 -42 68 -71 48 -75 84 -96
154 -88 30 4 75 9 100 11 57 7 101 -21 147 -91 46 -70 82 -88 158 -79 155 18
183 9 241 -83 27 -41 47 -60 81 -75 43 -19 47 -19 114 -3 66 16 72 16 115 0
35 -13 53 -29 82 -73 65 -98 85 -105 244 -87 55 6 72 5 93 -9 l25 -16 0 259
c0 256 0 261 -22 281 -40 37 -91 46 -152 27 -107 -34 -168 -16 -225 66 -49 72
-115 92 -201 62 -87 -31 -151 -12 -200 60 -18 25 -46 55 -63 66 -38 23 -101
25 -150 4 -78 -33 -145 -10 -205 70 -21 28 -49 55 -62 62 -35 18 -94 16 -156
-4 -79 -24 -117 -10 -188 72 -77 86 -110 97 -206 66 -89 -28 -136 -17 -184 42
-56 71 -73 85 -115 98 -35 10 -50 10 -95 -4 -107 -34 -161 -19 -222 64 -56 76
-116 95 -204 64 -86 -30 -152 -10 -201 62 -57 82 -118 100 -225 66 -44 -14
-60 -14 -93 -4 -38 11 -53 24 -121 103 -47 55 -93 65 -180 38 -90 -28 -135
-18 -182 42 -58 72 -75 86 -117 99 -35 10 -50 10 -95 -4 -107 -34 -168 -16
-225 66 -49 72 -121 94 -198 62 -79 -33 -154 -11 -203 60 -18 25 -46 55 -63
66 -38 23 -101 25 -150 4 -79 -33 -138 -12 -208 75 -56 68 -99 84 -174 64
-124 -34 -160 -25 -222 54 -64 84 -120 103 -210 74z"/>
<path d="M5698 3730 c-40 -22 -57 -40 -36 -40 19 0 78 38 78 50 0 12 2 13 -42
-10z"/>
<path d="M7060 3740 c0 -12 59 -50 78 -50 22 0 3 19 -39 40 -21 11 -39 16 -39
10z"/>
<path d="M5465 3678 c-28 -17 -49 -41 -72 -83 -51 -96 -97 -120 -197 -103 -50
9 -61 8 -104 -13 -39 -20 -53 -35 -82 -89 -29 -53 -43 -69 -81 -88 -41 -20
-53 -22 -104 -14 -100 16 -150 -9 -195 -97 -16 -33 -44 -70 -62 -83 -30 -21
-42 -23 -128 -20 -119 3 -144 -10 -192 -99 -50 -94 -69 -105 -186 -101 -87 2
-100 0 -130 -20 -18 -13 -48 -50 -65 -82 -49 -91 -68 -101 -190 -101 -123 0
-143 -10 -190 -100 -19 -35 -47 -69 -67 -83 -32 -22 -41 -23 -118 -17 -108 8
-145 -10 -193 -98 -19 -35 -49 -72 -69 -85 -32 -22 -42 -24 -115 -18 -109 8
-150 -12 -193 -92 -52 -98 -103 -127 -192 -110 -88 17 -151 -15 -192 -96 -46
-92 -104 -124 -196 -106 -88 16 -142 -13 -187 -101 -45 -87 -105 -118 -197
-101 -51 10 -105 -3 -139 -34 -11 -10 -33 -43 -50 -74 -44 -84 -84 -103 -191
-95 -77 6 -86 5 -118 -17 -19 -13 -50 -52 -70 -87 -50 -88 -79 -103 -190 -95
-78 5 -88 4 -120 -18 -20 -14 -48 -48 -67 -83 -47 -90 -67 -100 -190 -100
-122 0 -141 -10 -190 -101 -17 -32 -47 -69 -65 -82 -30 -20 -43 -22 -130 -20
-116 4 -136 -7 -185 -97 -17 -32 -38 -64 -47 -71 -14 -10 -16 -49 -16 -318 l0
-306 23 0 c46 0 85 37 124 116 49 99 74 114 190 114 77 0 85 2 114 28 18 16
46 57 63 92 43 90 67 105 171 107 119 2 164 31 194 124 12 37 49 78 88 98 12
6 55 10 95 9 61 -2 80 2 109 20 36 22 43 32 77 113 30 70 70 94 162 95 41 0
83 1 92 2 32 3 86 62 103 111 29 87 92 127 185 116 74 -8 135 22 162 80 49
104 54 110 98 133 37 18 54 21 97 16 93 -11 157 28 188 116 30 86 75 113 190
114 68 1 85 5 114 25 18 13 40 40 48 60 51 124 74 141 187 141 110 0 160 31
191 120 30 85 71 110 180 110 109 0 147 24 181 110 35 92 80 120 190 120 96 0
133 20 164 88 12 26 27 58 33 71 7 13 27 34 47 47 29 20 47 24 113 24 111 0
149 23 183 110 35 92 80 120 191 120 99 0 142 24 169 97 38 103 88 139 180
130 103 -11 146 17 199 126 43 87 67 102 169 102 113 1 140 17 188 116 32 68
42 79 83 99 37 18 55 21 99 16 89 -12 142 21 183 113 13 29 23 55 21 56 -2 2
-32 6 -68 9 -57 6 -70 4 -105 -16z"/>
<path d="M7203 3693 c-24 -2 -43 -7 -43 -10 0 -3 14 -34 30 -68 25 -53 37 -67
75 -85 37 -18 54 -20 99 -15 46 6 63 3 101 -15 41 -20 51 -31 83 -99 48 -99
74 -114 188 -115 102 -1 126 -16 169 -103 53 -109 96 -137 198 -126 42 4 62 1
96 -16 37 -19 47 -33 76 -95 44 -98 73 -116 182 -116 105 0 135 -19 183 -115
48 -95 79 -115 179 -115 109 0 136 -17 182 -110 50 -101 78 -120 182 -120 109
0 160 -31 186 -112 28 -87 77 -118 186 -118 109 0 150 -25 180 -110 31 -89 81
-120 191 -120 113 0 136 -17 187 -141 8 -20 30 -47 48 -60 29 -20 46 -24 114
-25 115 -1 160 -28 190 -114 31 -88 95 -127 188 -116 76 10 133 -21 164 -89
13 -27 29 -61 36 -75 7 -14 32 -35 57 -48 37 -19 54 -22 100 -17 93 11 156
-29 185 -116 17 -49 71 -108 103 -111 9 -1 51 -2 92 -2 88 -1 132 -25 157 -85
52 -125 80 -146 190 -143 106 3 156 -29 188 -118 29 -84 77 -114 175 -112 35
1 79 -3 97 -9 40 -13 79 -58 94 -110 7 -23 28 -54 51 -74 37 -34 41 -35 118
-35 118 0 148 -18 194 -115 37 -78 77 -115 124 -115 l22 0 0 302 c0 273 -2
303 -17 321 -10 10 -31 44 -48 75 -47 87 -68 98 -183 94 -87 -2 -100 0 -130
20 -18 13 -48 50 -65 82 -49 91 -68 101 -190 101 -123 0 -143 10 -190 100 -19
35 -47 69 -67 83 -32 22 -41 23 -116 17 -112 -9 -150 10 -196 97 -20 38 -47
72 -68 86 -32 22 -41 23 -118 17 -108 -8 -145 10 -193 98 -19 35 -49 72 -69
85 -32 22 -42 24 -115 18 -109 -8 -150 12 -193 92 -55 102 -102 129 -198 111
-94 -17 -142 11 -199 118 -21 40 -38 58 -72 74 -39 19 -50 20 -103 11 -100
-18 -148 8 -202 110 -43 80 -84 100 -193 92 -73 -6 -83 -4 -115 18 -21 14 -48
49 -68 86 -46 87 -83 105 -195 97 -75 -6 -85 -5 -117 17 -21 14 -48 48 -68 86
-46 87 -84 106 -196 97 -75 -6 -84 -5 -116 17 -20 14 -48 48 -67 83 -47 90
-67 100 -190 100 -122 0 -141 10 -190 101 -17 32 -47 69 -65 82 -30 20 -43 22
-128 20 -86 -3 -98 -1 -128 20 -18 13 -46 50 -62 83 -45 88 -95 113 -195 97
-51 -8 -63 -6 -104 14 -38 19 -52 35 -81 88 -29 53 -43 69 -81 88 -41 20 -53
22 -104 14 -102 -16 -147 7 -198 103 -34 64 -90 106 -137 103 -14 -1 -44 -3
-67 -5z"/>
<path d="M5785 3620 c-31 -21 -52 -50 -36 -50 14 0 77 57 71 64 -3 3 -19 -3
-35 -14z"/>
<path d="M6980 3631 c0 -11 58 -61 71 -61 6 0 6 6 0 18 -11 20 -71 57 -71 43z"/>
<path d="M5604 3549 c-47 -14 -91 -64 -104 -121 -22 -92 -83 -138 -182 -138
-86 0 -133 -38 -159 -130 -26 -93 -72 -130 -160 -130 -60 0 -129 -29 -152 -63
-8 -12 -21 -47 -30 -77 -26 -91 -84 -130 -188 -130 -31 0 -57 -7 -80 -23 -37
-25 -50 -45 -80 -129 -28 -78 -59 -99 -158 -108 -112 -10 -144 -35 -174 -140
-27 -93 -83 -130 -196 -130 -48 0 -57 -3 -91 -38 -24 -23 -43 -55 -50 -82 -28
-104 -62 -130 -177 -140 -100 -9 -135 -37 -163 -128 -27 -94 -71 -132 -152
-132 -103 0 -163 -45 -192 -142 -25 -87 -80 -128 -170 -128 -93 0 -138 -35
-166 -130 -27 -92 -72 -130 -152 -130 -103 0 -168 -45 -188 -132 -22 -91 -84
-138 -180 -138 -85 0 -132 -36 -157 -120 -29 -102 -74 -140 -164 -140 -60 0
-129 -29 -152 -63 -8 -12 -21 -47 -30 -77 -26 -90 -84 -130 -187 -130 -78 0
-126 -42 -151 -130 -26 -91 -76 -130 -169 -130 -81 0 -139 -37 -163 -103 -6
-16 17 -17 392 -17 l398 0 6 42 c11 79 64 126 159 138 102 12 140 47 158 143
18 91 65 135 156 144 94 8 164 69 164 142 0 74 63 137 147 146 32 4 71 11 86
17 41 16 73 65 87 130 19 93 61 131 161 144 100 13 138 48 158 146 20 93 60
129 160 142 100 13 140 50 160 148 18 86 70 138 138 138 97 0 163 54 182 148
17 90 69 142 139 142 59 0 96 14 132 50 29 29 39 49 49 98 20 102 57 131 184
147 73 10 114 51 133 137 9 37 24 78 34 91 26 32 79 57 124 57 84 0 148 55
161 137 14 98 56 137 158 152 105 15 139 44 161 139 8 35 22 75 31 88 21 32
89 63 138 64 77 0 130 47 150 136 8 33 21 70 28 83 22 35 73 61 131 68 98 11
140 47 162 141 l14 62 -46 -1 c-26 0 -61 -5 -78 -10z"/>
<path d="M7086 3498 c22 -94 64 -130 162 -141 95 -11 143 -57 157 -150 12 -80
75 -137 152 -137 90 -1 154 -59 168 -154 13 -87 64 -126 187 -141 72 -9 111
-51 131 -139 22 -99 75 -146 163 -146 45 0 98 -25 124 -57 11 -14 25 -53 31
-86 17 -84 63 -132 134 -141 130 -17 166 -46 186 -149 19 -96 81 -147 181
-147 69 0 121 -52 138 -138 7 -31 18 -67 26 -80 23 -35 72 -60 133 -68 101
-12 142 -48 162 -142 20 -98 58 -134 159 -147 102 -14 142 -50 161 -147 9 -43
21 -69 44 -93 32 -34 45 -39 125 -50 52 -6 102 -34 124 -68 9 -13 20 -47 26
-76 18 -96 61 -134 164 -144 91 -9 139 -53 156 -145 17 -91 72 -142 154 -142
86 0 141 -48 163 -141 8 -35 23 -75 33 -90 25 -34 77 -59 124 -59 83 0 150
-56 162 -135 l6 -45 399 0 c375 0 398 1 392 17 -24 66 -82 103 -163 103 -93 0
-143 39 -169 130 -25 88 -73 130 -151 130 -103 0 -161 40 -187 130 -9 30 -22
65 -30 77 -23 34 -92 63 -152 63 -88 0 -134 37 -160 130 -26 91 -73 130 -158
130 -98 0 -154 40 -179 130 -28 95 -89 140 -192 140 -80 0 -125 38 -152 130
-29 97 -72 130 -173 130 -35 0 -63 7 -87 21 -46 28 -57 44 -76 107 -29 98 -89
142 -192 142 -81 0 -125 38 -152 132 -28 93 -62 118 -169 128 -98 8 -133 30
-156 98 -42 121 -83 162 -164 162 -104 0 -162 39 -188 130 -9 30 -23 65 -31
78 -23 35 -84 62 -143 62 -90 0 -149 44 -164 122 -16 83 -77 138 -155 138
-103 0 -161 40 -187 130 -9 30 -22 65 -30 77 -23 34 -92 63 -152 63 -88 0
-134 37 -160 130 -26 92 -73 130 -159 130 -99 0 -160 46 -182 138 -20 86 -85
132 -187 132 l-41 0 14 -62z"/>
<path d="M5888 3528 c-23 -19 -52 -68 -40 -68 12 0 62 57 62 71 0 12 -3 11
-22 -3z"/>
<path d="M6890 3531 c0 -13 50 -71 61 -71 14 0 -23 60 -43 71 -12 6 -18 6 -18
0z"/>
<path d="M5985 3425 c-25 -45 -12 -57 14 -14 23 37 26 49 13 49 -5 0 -17 -16
-27 -35z"/>
<path d="M6780 3453 c0 -16 41 -75 48 -69 7 8 -28 76 -40 76 -4 0 -8 -3 -8 -7z"/>
<path d="M5767 3438 c-82 -17 -137 -90 -137 -181 0 -69 -53 -121 -141 -138
-96 -19 -130 -57 -144 -159 -13 -101 -50 -141 -143 -161 -101 -20 -134 -59
-147 -167 -6 -54 -12 -69 -44 -102 -29 -30 -48 -40 -96 -50 -32 -7 -69 -19
-82 -27 -36 -24 -60 -73 -66 -137 -9 -91 -53 -139 -144 -156 -96 -18 -130 -55
-144 -159 -14 -99 -54 -143 -147 -161 -91 -17 -142 -72 -142 -154 0 -86 -48
-141 -141 -163 -35 -8 -75 -23 -90 -33 -30 -22 -59 -85 -59 -131 0 -80 -56
-140 -148 -158 -90 -18 -142 -78 -142 -166 0 -78 -56 -136 -148 -154 -79 -15
-127 -64 -137 -138 -12 -91 -16 -102 -54 -136 -27 -25 -53 -37 -97 -45 -94
-19 -143 -83 -144 -186 0 -35 -34 -88 -70 -109 -14 -8 -51 -20 -82 -26 -81
-17 -122 -64 -132 -150 -4 -34 -10 -69 -13 -77 -4 -12 29 -14 226 -14 l231 0
0 28 c0 33 31 86 62 106 13 8 43 20 68 27 93 26 130 72 130 160 0 60 29 129
63 152 12 8 47 21 77 30 90 26 130 82 130 181 0 89 37 128 163 171 65 23 97
70 97 142 0 65 24 127 59 152 14 10 51 26 81 34 90 26 130 84 130 188 0 81 41
122 162 164 68 23 90 58 98 156 10 108 35 141 130 169 101 30 140 86 140 202
0 41 5 54 36 87 21 24 48 42 67 46 57 12 112 44 132 77 12 20 22 61 26 105 8
100 35 135 126 163 98 30 133 70 133 152 0 103 45 164 140 192 90 25 130 81
130 179 0 85 39 132 130 158 53 15 95 42 112 72 16 29 27 157 13 156 -5 -1
-32 -6 -58 -11z"/>
<path d="M6970 3383 c3 -38 11 -78 18 -90 17 -31 62 -60 104 -68 89 -17 138
-76 138 -168 0 -95 46 -155 138 -177 85 -20 131 -87 132 -193 0 -77 37 -117
133 -147 91 -28 118 -63 126 -164 9 -107 37 -144 131 -172 36 -11 68 -30 91
-53 34 -34 36 -41 42 -115 8 -107 35 -142 135 -174 98 -32 122 -64 132 -171 8
-98 30 -133 98 -156 125 -43 162 -82 162 -171 0 -99 40 -155 130 -181 30 -8
67 -24 81 -34 35 -25 59 -87 59 -152 0 -72 32 -119 97 -142 126 -43 163 -82
163 -171 0 -99 40 -155 130 -181 30 -9 65 -22 77 -30 34 -23 63 -92 63 -152 0
-86 43 -141 122 -156 75 -14 138 -77 138 -137 l0 -28 231 0 c215 0 230 1 225
18 -3 9 -8 44 -12 76 -9 83 -52 130 -132 146 -99 21 -152 70 -152 142 0 97
-51 161 -144 180 -44 8 -70 20 -97 45 -38 34 -42 45 -54 136 -10 74 -58 123
-137 138 -92 18 -148 76 -148 154 0 87 -54 149 -143 166 -91 18 -147 78 -147
158 0 46 -29 109 -60 131 -16 11 -52 25 -82 30 -93 18 -135 64 -148 162 -12
102 -47 140 -143 158 -92 18 -132 62 -146 161 -14 104 -48 141 -144 159 -91
17 -135 65 -144 156 -6 64 -30 113 -66 137 -13 8 -50 20 -82 27 -48 10 -67 20
-96 50 -32 33 -38 48 -44 102 -13 108 -46 147 -147 167 -93 20 -130 60 -143
161 -14 102 -49 139 -150 160 -44 9 -68 21 -92 45 -32 32 -37 46 -48 125 -11
88 -63 136 -165 154 l-35 6 5 -67z"/>
<path d="M6116 3367 c-10 -26 -16 -50 -13 -53 9 -10 38 56 35 79 -3 17 -8 11
-22 -26z"/>
<path d="M6661 3392 c-1 -27 30 -92 36 -75 2 6 -5 31 -16 55 -15 34 -19 38
-20 20z"/>
<path d="M6251 3331 c-8 -29 -9 -47 -2 -54 6 -6 12 2 16 26 11 57 0 78 -14 28z"/>
<path d="M6531 3339 c1 -41 13 -77 22 -63 6 11 -7 81 -17 91 -3 4 -6 -9 -5
-28z"/>
<path d="M5890 3332 c-80 -39 -100 -74 -100 -176 0 -109 -16 -135 -113 -181
-94 -45 -123 -88 -114 -171 10 -101 -18 -149 -119 -194 -90 -41 -109 -72 -110
-181 0 -108 -19 -138 -108 -179 -100 -45 -131 -93 -121 -189 9 -74 -22 -135
-80 -163 -22 -11 -56 -27 -75 -36 -52 -25 -83 -91 -74 -159 11 -93 -26 -153
-116 -187 -90 -35 -123 -91 -113 -190 9 -92 -27 -142 -130 -180 -35 -13 -55
-29 -74 -58 -23 -34 -26 -48 -25 -114 3 -107 -28 -157 -118 -189 -85 -30 -110
-71 -110 -183 0 -66 -4 -85 -23 -113 -12 -18 -34 -39 -47 -45 -14 -7 -47 -23
-74 -36 -66 -31 -86 -70 -86 -165 0 -39 -4 -82 -9 -95 -14 -37 -56 -72 -109
-91 -28 -10 -58 -27 -68 -38 -17 -19 -14 -19 188 -19 196 0 206 1 224 21 10
12 45 34 77 50 84 43 98 70 95 189 -3 86 -1 98 20 128 13 18 50 46 83 62 88
45 114 96 97 193 -9 51 -8 62 13 105 20 39 35 53 89 82 54 29 69 43 88 82 21
43 22 51 12 108 -10 57 -9 65 12 108 19 39 35 53 88 82 92 50 111 87 104 200
-7 107 7 134 97 182 94 50 104 68 104 191 0 123 10 143 100 190 35 19 69 47
83 67 22 32 23 42 17 120 -8 112 7 141 96 190 37 20 73 50 87 70 22 32 23 41
17 117 -8 112 10 149 97 195 37 20 72 47 86 68 22 32 24 42 18 115 -8 110 11
149 96 196 79 43 108 84 108 153 0 55 -8 96 -19 96 -3 0 -31 -13 -61 -28z"/>
<path d="M6390 3310 c0 -27 5 -50 10 -50 6 0 10 23 10 50 0 28 -4 50 -10 50
-5 0 -10 -22 -10 -50z"/>
<path d="M6836 3338 c-3 -13 -6 -46 -6 -74 0 -69 29 -110 108 -153 85 -47 104
-86 96 -196 -6 -73 -4 -83 18 -115 14 -21 49 -48 86 -68 87 -46 105 -83 97
-195 -6 -76 -5 -85 17 -117 14 -20 50 -50 87 -70 89 -49 104 -78 96 -190 -6
-78 -5 -88 17 -120 14 -20 48 -48 83 -67 90 -47 100 -67 100 -190 0 -123 10
-141 104 -191 89 -48 102 -73 99 -192 -3 -86 -1 -98 20 -128 13 -18 50 -46 83
-62 88 -45 114 -96 97 -193 -9 -51 -8 -62 13 -105 20 -39 35 -53 89 -82 54
-29 69 -43 89 -83 21 -44 23 -53 13 -102 -19 -94 9 -150 97 -195 33 -16 70
-44 83 -62 21 -30 23 -42 20 -128 -3 -119 11 -146 95 -189 32 -16 67 -38 77
-50 18 -20 28 -21 224 -21 202 0 205 0 188 19 -10 11 -39 27 -65 37 -96 34
-114 61 -121 182 -7 114 -21 140 -90 172 -82 37 -94 45 -117 79 -19 28 -23 47
-23 113 0 112 -25 153 -110 183 -89 32 -121 82 -118 188 2 94 -20 135 -90 167
-26 12 -58 27 -70 33 -46 22 -67 66 -68 142 -1 39 -2 80 -3 92 -2 35 -56 88
-108 108 -93 34 -130 94 -119 188 9 68 -22 134 -74 159 -19 9 -53 25 -75 36
-58 28 -89 89 -80 163 10 95 -20 143 -121 189 -89 40 -108 71 -108 180 -1 78
-4 90 -28 121 -17 23 -48 45 -90 62 -90 39 -114 76 -111 175 4 107 -17 141
-114 187 -97 46 -113 72 -113 181 0 102 -20 137 -100 176 -67 33 -66 33 -74 6z"/>
<path d="M6044 3264 c-67 -43 -89 -88 -79 -158 22 -148 10 -183 -80 -240 -83
-54 -100 -98 -76 -203 12 -57 12 -67 -4 -109 -14 -36 -29 -53 -70 -80 -96 -61
-118 -111 -90 -207 27 -94 4 -143 -100 -209 -26 -16 -48 -41 -60 -68 -17 -37
-17 -48 -7 -99 25 -119 6 -172 -77 -220 -84 -50 -97 -91 -76 -237 10 -72 -12
-115 -82 -160 -77 -49 -96 -84 -88 -159 18 -159 10 -182 -79 -242 -85 -56
-103 -102 -79 -202 15 -64 15 -68 -5 -114 -16 -36 -34 -55 -77 -83 -44 -27
-62 -47 -77 -82 -19 -43 -20 -49 -5 -115 21 -98 0 -160 -66 -193 -35 -18 -87
-63 -87 -76 0 -4 83 -8 185 -8 154 0 183 2 179 14 -9 23 14 91 40 117 13 13
42 39 64 57 58 46 71 93 47 171 -32 107 -8 178 77 228 33 20 68 82 68 121 0
16 -7 49 -15 72 -32 91 -12 154 68 209 74 51 92 115 61 216 -29 91 -10 135 95
215 19 15 38 43 46 67 13 38 13 48 -7 112 -18 62 -20 76 -9 112 13 42 27 59
99 117 59 47 70 94 44 183 -30 98 -20 127 67 209 82 77 95 114 68 191 -35 97
-15 162 66 218 72 49 92 115 62 201 -32 90 -12 149 68 208 29 22 60 54 67 71
15 36 9 111 -11 157 l-14 31 -51 -33z"/>
<path d="M6686 3253 c-20 -58 -20 -116 -1 -152 8 -16 37 -45 65 -65 76 -55 98
-124 65 -203 -33 -79 -11 -151 61 -203 83 -59 100 -113 68 -215 -27 -84 -15
-118 67 -195 87 -82 97 -111 67 -209 -26 -89 -15 -136 44 -183 72 -58 86 -75
99 -117 11 -37 10 -50 -10 -110 -21 -63 -21 -70 -7 -112 9 -26 28 -54 47 -69
105 -80 124 -124 95 -215 -32 -104 -14 -167 64 -219 76 -50 97 -116 65 -206
-8 -23 -15 -56 -15 -72 0 -39 35 -101 68 -121 84 -50 110 -124 77 -221 -13
-37 -16 -64 -11 -91 7 -38 18 -51 115 -138 31 -28 57 -97 47 -123 -4 -12 26
-14 180 -14 206 0 210 2 133 57 -82 60 -90 68 -104 109 -12 35 -11 50 2 110
15 68 14 73 -5 116 -15 35 -33 55 -77 82 -43 28 -61 47 -77 83 -20 45 -20 49
-4 113 24 100 5 147 -80 203 -89 60 -97 83 -79 242 8 75 -11 109 -88 158 -70
45 -93 90 -81 161 22 142 7 187 -77 237 -83 48 -102 101 -77 220 10 51 10 62
-7 99 -12 27 -33 51 -60 67 -102 64 -127 116 -100 210 28 96 6 146 -90 207
-42 27 -56 44 -70 81 -17 43 -17 50 -2 111 24 99 5 146 -79 200 -89 57 -98 84
-80 239 9 77 -10 115 -82 161 l-51 33 -15 -46z"/>
<path d="M6198 3212 c-70 -72 -77 -114 -33 -217 12 -26 16 -55 12 -88 -4 -43
-11 -55 -61 -106 -73 -74 -84 -112 -54 -191 12 -31 22 -80 22 -112 1 -57 0
-58 -57 -116 -81 -82 -92 -133 -46 -224 23 -45 24 -103 4 -142 -8 -16 -35 -46
-60 -68 -69 -61 -78 -121 -34 -210 21 -40 24 -93 10 -131 -5 -13 -34 -48 -64
-78 -71 -70 -80 -110 -43 -197 44 -103 35 -145 -48 -224 -70 -69 -79 -109 -42
-196 44 -103 35 -145 -48 -225 -71 -68 -80 -114 -42 -201 43 -98 35 -139 -48
-219 -45 -44 -55 -60 -61 -99 -6 -38 -2 -56 20 -107 l28 -61 137 0 c129 0 138
1 157 22 53 58 56 115 13 203 -45 90 -39 133 28 207 22 24 44 53 51 65 19 37
12 95 -19 153 -17 31 -30 70 -30 90 0 38 31 97 61 118 28 19 59 86 59 124 0
18 -13 58 -30 88 -31 58 -38 116 -19 153 7 12 29 41 51 65 67 74 73 117 28
207 -47 95 -38 156 30 220 66 61 75 122 30 205 -31 59 -39 124 -19 163 7 12
31 43 54 68 61 66 67 112 26 192 -42 81 -42 138 -1 195 17 23 34 42 38 42 12
0 39 51 47 87 5 26 -1 48 -26 103 -26 58 -31 78 -27 120 4 43 12 58 45 93 52
54 65 79 65 132 1 30 -8 58 -28 94 l-30 51 -46 -48z"/>
<path d="M6526 3208 c-31 -56 -37 -117 -16 -159 7 -13 30 -43 53 -66 33 -35
41 -50 45 -93 4 -42 -1 -62 -27 -120 -25 -55 -31 -77 -26 -103 8 -36 35 -87
47 -87 4 0 21 -19 38 -42 41 -57 41 -114 -1 -195 -41 -80 -35 -126 26 -192 23
-25 47 -56 54 -68 20 -39 12 -104 -19 -163 -45 -83 -36 -144 30 -205 69 -64
78 -127 30 -215 -46 -87 -39 -138 28 -212 22 -24 44 -53 51 -65 19 -37 12 -95
-19 -153 -45 -82 -39 -139 18 -197 45 -44 72 -94 72 -131 0 -18 -13 -59 -30
-92 -31 -62 -38 -116 -18 -153 6 -12 30 -44 54 -70 61 -69 67 -117 25 -199
-45 -88 -42 -147 12 -206 19 -21 28 -22 157 -22 l137 0 28 61 c40 89 31 133
-41 204 -83 82 -92 124 -48 219 39 85 29 131 -42 203 -83 83 -91 118 -48 223
36 90 28 129 -42 198 -83 79 -92 121 -48 224 37 87 28 127 -43 197 -30 30 -59
65 -64 78 -14 38 -11 91 10 131 44 89 35 149 -34 210 -25 22 -52 52 -60 68
-20 39 -19 97 4 142 44 90 35 147 -35 212 -26 24 -53 55 -60 69 -19 37 -17 95
5 139 11 21 20 51 22 67 5 72 0 86 -62 151 -55 56 -62 69 -67 112 -3 32 2 61
13 87 44 104 37 149 -34 219 l-46 46 -29 -52z"/>
<path d="M6369 3207 c-43 -53 -52 -77 -47 -131 3 -37 13 -63 36 -95 18 -24 32
-55 32 -68 0 -14 4 -21 10 -18 6 3 10 14 10 24 0 10 14 38 32 62 39 54 49 129
24 175 -15 28 -62 85 -68 83 -2 0 -15 -15 -29 -32z"/>
<path d="M6390 2847 c0 -13 -18 -48 -40 -78 -23 -29 -43 -64 -47 -77 -10 -40
5 -94 39 -141 28 -39 33 -55 33 -102 0 -50 -4 -62 -38 -104 -66 -86 -68 -136
-8 -229 43 -69 43 -125 -1 -190 -73 -105 -77 -143 -23 -226 59 -93 56 -151
-10 -230 -59 -70 -58 -126 0 -213 27 -39 35 -62 35 -95 0 -48 -7 -65 -56 -129
-29 -37 -34 -53 -34 -96 0 -44 6 -61 37 -107 48 -72 51 -128 7 -190 -77 -111
-81 -149 -20 -246 51 -84 47 -141 -14 -210 -38 -44 -53 -98 -39 -147 l10 -37
179 0 179 0 10 38 c14 48 1 94 -39 143 -62 78 -65 129 -14 213 61 97 57 135
-20 246 -44 62 -41 118 7 190 31 46 37 63 37 107 0 43 -5 59 -34 96 -49 64
-56 81 -56 129 0 33 8 56 35 95 19 28 37 63 41 77 10 41 -4 93 -35 129 -73 83
-76 138 -16 236 33 54 37 66 33 110 -4 39 -13 61 -43 97 -32 38 -39 57 -43
101 -4 48 -1 60 30 111 20 31 38 69 42 84 8 37 -13 96 -55 148 -30 37 -34 49
-34 99 0 47 5 63 33 102 34 47 49 101 39 141 -4 13 -24 48 -47 77 -22 30 -40
65 -40 78 0 13 -4 23 -10 23 -5 0 -10 -10 -10 -23z"/>
</g>
</svg>
