<?xml version="1.0" standalone="no"?>
<!DOCTYPE svg PUBLIC "-//W3C//DTD SVG 20010904//EN"
 "http://www.w3.org/TR/2001/REC-SVG-20010904/DTD/svg10.dtd">
<svg version="1.0" xmlns="http://www.w3.org/2000/svg"
 width="1239.000000pt" height="1280.000000pt" viewBox="0 0 1239.000000 1280.000000"
 preserveAspectRatio="xMidYMid meet">
<g transform="translate(0.000000,1280.000000) scale(0.100000,-0.100000)"
fill="#673ab7" stroke="none">
<path d="M6201 12760 c-80 -110 -147 -289 -216 -570 -62 -257 -104 -413 -114
-423 -5 -5 -69 58 -143 140 -251 275 -371 379 -530 459 -115 58 -130 57 -156
-3 -81 -192 -117 -488 -93 -768 11 -123 20 -193 90 -660 16 -104 27 -191 26
-193 -3 -4 -101 54 -310 183 -304 188 -465 256 -605 259 -94 1 -134 -19 -168
-86 -33 -65 -25 -96 54 -215 57 -85 65 -102 60 -132 -9 -60 -65 -102 -179
-135 -71 -20 -97 -45 -97 -89 0 -35 3 -39 143 -167 81 -75 78 -124 -11 -150
-20 -6 -188 -18 -372 -26 -184 -8 -391 -21 -460 -29 -235 -27 -399 -83 -527
-179 -103 -75 -114 -62 257 -309 l320 -214 -147 -12 c-417 -34 -683 -117 -899
-278 -86 -64 -131 -112 -188 -201 -58 -91 -87 -162 -75 -183 20 -39 254 -66
733 -84 472 -18 988 -56 973 -72 -6 -6 -359 -50 -535 -68 -254 -25 -378 -49
-396 -78 -19 -30 6 -50 105 -84 146 -50 322 -81 651 -114 167 -16 348 -36 403
-45 308 -45 537 -142 701 -297 62 -59 89 -78 106 -75 13 2 24 11 26 21 2 10
-37 100 -86 200 -285 576 -371 1035 -271 1442 108 436 415 768 959 1039 684
340 1444 464 2050 334 532 -113 918 -406 1135 -861 77 -160 126 -322 156 -512
17 -105 17 -435 0 -550 -59 -407 -211 -773 -462 -1113 -86 -116 -312 -344
-426 -431 -85 -63 -94 -78 -68 -104 13 -13 27 -12 123 8 224 47 373 90 1037
300 501 158 827 217 1215 218 213 1 265 -6 535 -70 163 -38 211 -39 287 -5 49
22 108 68 108 85 -1 28 -23 39 -131 63 -140 32 -353 100 -649 209 -243 89
-500 191 -513 204 -10 10 78 66 255 161 137 74 244 146 260 175 5 8 5 23 -1
34 -12 21 -78 31 -338 52 -131 11 -153 15 -153 29 0 25 68 125 148 218 94 109
130 162 153 228 24 69 24 89 -2 115 -34 34 -150 23 -314 -30 -133 -43 -236
-62 -292 -54 -26 4 -33 10 -33 28 0 35 102 179 265 375 258 310 345 451 345
560 0 78 -30 120 -103 140 -78 22 -230 -27 -550 -177 -87 -40 -181 -83 -209
-94 l-51 -20 6 48 c10 70 50 140 178 314 134 182 172 243 202 324 12 33 42 87
67 120 92 121 181 289 206 386 40 156 -41 235 -214 209 -181 -28 -341 -89
-735 -282 -158 -78 -290 -138 -293 -135 -4 3 77 172 178 374 268 536 338 712
338 854 0 57 -4 72 -24 96 -45 52 -134 27 -270 -77 -125 -94 -188 -132 -360
-217 -94 -47 -288 -148 -431 -223 -295 -157 -564 -285 -627 -300 -117 -27
-143 -8 -188 141 -107 359 -192 523 -372 725 -129 144 -386 364 -425 364 -7 0
-26 -18 -42 -40z m-2776 -3272 c73 -31 76 -38 14 -38 -49 0 -59 4 -104 41 -28
22 -54 45 -60 51 -10 9 43 -10 150 -54z"/>
<path d="M6030 10014 c-334 -42 -587 -165 -798 -389 -405 -428 -520 -1164
-267 -1711 51 -112 136 -234 224 -323 l76 -77 -245 -1 c-338 -1 -658 -29
-1250 -108 -472 -63 -648 -80 -1440 -135 -866 -61 -1310 -132 -1795 -287 -197
-63 -507 -201 -529 -236 -15 -23 10 -46 63 -58 76 -17 365 -58 491 -69 305
-27 815 -24 1580 11 372 16 1318 22 2491 14 l1157 -7 11 -87 c24 -196 25 -202
10 -197 -27 10 -639 36 -1074 46 -708 17 -2159 18 -2279 2 -187 -26 -330 -74
-405 -138 -44 -37 -91 -102 -91 -126 0 -12 28 -37 85 -74 254 -165 595 -261
1040 -293 386 -27 657 -23 1385 24 549 35 860 45 1098 35 112 -5 230 -12 262
-16 66 -7 64 -3 76 -137 5 -62 4 -77 -7 -77 -20 0 -758 -73 -1209 -120 -212
-22 -578 -58 -815 -80 -529 -50 -495 -45 -495 -74 0 -36 19 -45 136 -63 133
-21 706 -23 1124 -4 350 15 1056 49 1197 56 l111 6 6 -28 c3 -15 8 -53 11 -83
l7 -56 -199 -17 c-415 -38 -1042 -127 -1212 -172 -200 -54 -335 -156 -259
-196 25 -14 171 -11 1008 21 294 11 574 20 621 20 l85 0 15 -127 c8 -71 14
-134 14 -142 0 -10 -45 -23 -160 -46 -297 -60 -446 -128 -526 -238 -37 -51
-61 -131 -53 -175 8 -44 58 -93 126 -125 70 -33 341 -117 549 -169 l166 -42
47 -384 c26 -212 44 -388 39 -392 -4 -4 -26 -13 -48 -20 -112 -35 -175 -87
-175 -144 0 -79 95 -205 228 -301 l68 -50 129 -1030 c111 -884 130 -1057 135
-1219 4 -159 8 -190 21 -199 9 -6 23 -8 31 -4 13 4 16 54 22 319 12 539 30
704 120 1070 81 325 97 576 47 708 -38 99 -138 195 -378 363 l-140 97 -17 143
c-9 78 -19 154 -22 168 -5 25 -3 26 128 62 73 20 284 73 468 117 479 114 590
145 708 192 136 54 119 144 -43 219 -157 73 -375 134 -1000 280 -192 45 -357
85 -365 89 -12 6 -24 79 -53 311 -20 166 -36 304 -34 306 8 8 130 25 422 58
171 19 364 42 430 51 227 29 366 74 472 155 45 33 54 45 51 67 -10 86 -253
115 -969 114 l-467 -1 -6 72 c-4 40 -10 82 -12 93 -5 19 0 22 48 28 105 12
634 47 1168 76 872 48 783 39 778 78 -4 33 -36 50 -164 86 -245 70 -406 81
-1159 81 -346 0 -649 -4 -672 -8 l-41 -7 -7 65 c-4 36 -6 68 -4 70 4 3 402 40
699 65 279 24 645 24 1005 0 510 -33 738 -14 988 82 72 27 77 31 77 59 0 22
-5 30 -22 33 -13 3 -268 7 -568 10 -561 6 -868 15 -1335 41 -315 17 -876 64
-888 75 -4 4 -17 81 -27 171 -11 90 -22 176 -25 191 l-4 28 57 -6 c150 -13
745 -64 887 -76 215 -18 1116 -18 1315 0 393 34 637 73 1390 221 351 68 507
95 890 151 663 97 975 164 1290 276 244 88 551 256 685 377 42 38 48 48 39 63
-16 27 -52 32 -359 44 -703 30 -1541 -47 -2675 -244 -1598 -278 -2017 -329
-2935 -356 -181 -5 -399 -10 -482 -10 -150 0 -153 0 -157 23 -3 12 -19 134
-36 271 -27 222 -29 251 -15 258 8 5 15 16 15 25 0 13 12 14 95 8 52 -4 139
-4 192 0 82 7 100 11 117 30 12 12 37 26 56 29 79 16 215 62 380 128 96 39
245 95 330 125 85 30 178 63 205 73 391 140 607 344 699 661 102 354 21 837
-187 1106 -217 281 -546 447 -1059 534 -119 20 -449 34 -538 23z"/>
</g>
</svg>
