<?xml version="1.0" standalone="no"?>
<!DOCTYPE svg PUBLIC "-//W3C//DTD SVG 20010904//EN"
 "http://www.w3.org/TR/2001/REC-SVG-20010904/DTD/svg10.dtd">
<svg version="1.0" xmlns="http://www.w3.org/2000/svg"
 width="1280.000000pt" height="640.000000pt" viewBox="0 0 1280.000000 640.000000"
 preserveAspectRatio="xMidYMid meet">
<g transform="translate(0.000000,640.000000) scale(0.100000,-0.100000)"
fill="#ff9800" stroke="none">
<path d="M5480 5434 c0 -4 27 -53 59 -108 33 -56 65 -114 71 -131 33 -87 65
-374 55 -490 -3 -44 -24 -165 -46 -270 -59 -280 -70 -366 -70 -510 0 -153 20
-270 80 -456 66 -209 75 -340 31 -489 -18 -59 -71 -160 -85 -160 -12 0 -94
187 -153 345 -33 88 -159 457 -280 820 -223 671 -284 840 -353 977 -40 79 -64
109 -55 66 54 -241 70 -307 82 -340 10 -30 11 -51 3 -96 -12 -64 -6 -204 16
-352 15 -97 64 -350 71 -361 7 -12 44 -412 54 -584 12 -230 13 -632 1 -640 -5
-3 -12 3 -15 12 -3 10 -21 77 -41 148 -45 162 -79 227 -272 517 -83 124 -174
274 -202 332 -49 98 -51 107 -37 128 57 90 49 325 -19 522 -14 40 -25 90 -25
112 0 169 -185 441 -359 529 -19 9 -62 19 -95 22 l-61 5 60 -40 c137 -91 176
-148 216 -313 17 -68 44 -149 60 -179 39 -71 49 -186 49 -565 0 -444 8 -500
107 -735 22 -52 47 -126 57 -164 16 -64 39 -306 30 -315 -5 -6 -36 32 -123
154 -92 128 -223 337 -496 784 -397 653 -528 851 -561 851 -41 0 2 -126 318
-925 186 -472 284 -734 346 -925 44 -136 80 -295 70 -306 -12 -12 -98 46 -162
109 -34 34 -139 150 -232 257 -176 201 -305 331 -385 388 -42 30 -49 42 -83
134 -244 657 -548 1058 -869 1143 -26 7 -47 10 -47 6 0 -4 14 -29 31 -54 33
-50 108 -119 279 -259 140 -113 211 -192 254 -280 48 -98 62 -158 91 -392 38
-305 69 -402 188 -601 49 -82 87 -131 149 -192 70 -67 95 -101 146 -195 95
-177 144 -288 124 -288 -21 0 -250 220 -562 541 -512 527 -970 983 -1018 1014
-23 15 -45 25 -49 22 -26 -26 63 -175 445 -744 487 -725 649 -978 732 -1143
36 -71 62 -140 53 -140 -3 0 -26 17 -52 39 -62 52 -260 180 -526 341 -369 223
-469 297 -496 369 -6 14 -22 69 -36 121 -49 184 -111 270 -328 450 -164 136
-290 200 -395 200 -64 0 -67 -10 -24 -90 73 -134 589 -798 660 -850 101 -72
111 -85 119 -150 l7 -59 256 -245 c293 -279 442 -428 442 -444 0 -39 -346 159
-1040 595 -560 352 -969 593 -1005 593 -24 0 70 -99 598 -629 616 -619 771
-783 864 -910 2 -3 9 1 15 7 9 9 1004 12 4262 12 l4251 1 135 121 c243 217
601 531 800 700 107 91 220 192 251 224 97 103 181 229 220 331 9 25 9 25 -13
11 -81 -53 -914 -584 -1158 -738 -321 -203 -639 -395 -645 -389 -2 2 37 38 87
78 140 116 236 210 262 255 17 30 25 63 30 124 3 45 10 91 16 101 5 11 42 41
80 67 201 134 323 291 496 638 l94 188 57 34 c109 65 172 157 180 268 9 104
-7 100 -159 -36 -136 -122 -223 -229 -388 -472 -92 -137 -178 -252 -222 -298
-70 -73 -78 -78 -208 -132 -258 -107 -435 -221 -576 -368 -47 -50 -91 -88
-102 -88 -10 0 -49 19 -86 43 l-67 44 63 54 c35 31 95 80 133 111 69 55 73 61
315 463 210 350 264 432 375 571 195 243 224 298 232 439 6 113 -2 120 -74 59
-115 -97 -291 -275 -601 -604 -475 -504 -760 -780 -806 -780 -40 0 0 242 64
377 36 78 113 157 256 265 131 99 210 180 242 247 24 53 25 58 19 212 -5 124
-3 169 9 216 22 84 95 233 235 475 196 339 234 418 205 418 -27 0 -143 -86
-221 -165 -71 -71 -88 -95 -142 -205 -34 -69 -96 -217 -138 -330 -42 -113 -97
-248 -121 -300 -94 -198 -224 -361 -477 -591 -122 -111 -165 -138 -257 -159
-30 -7 -77 -23 -104 -36 l-48 -24 7 37 c26 142 151 475 514 1377 162 401 221
566 221 618 0 116 -149 -94 -758 -1067 -365 -583 -462 -732 -462 -709 0 10 18
152 40 314 l39 295 134 335 c224 558 222 552 242 780 33 386 35 558 7 568 -18
6 -88 -71 -131 -142 -47 -78 -67 -172 -96 -448 -36 -349 -52 -414 -152 -613
-55 -108 -165 -299 -215 -374 -17 -25 -74 -100 -126 -166 -119 -149 -197 -268
-232 -353 -31 -72 -30 -73 -54 48 -25 125 -36 238 -36 370 0 160 8 207 80 480
76 289 90 354 97 470 6 100 -5 197 -33 283 -15 45 -15 54 1 115 10 37 20 122
22 192 5 123 -3 190 -23 197 -19 6 -106 -237 -255 -717 -238 -766 -290 -923
-376 -1145 -56 -143 -75 -177 -92 -160 -17 18 -40 116 -52 220 -18 162 3 268
96 485 60 141 68 189 62 400 -7 261 -51 495 -149 791 l-42 127 38 56 c53 81
93 170 117 264 29 115 26 122 -36 80 -92 -64 -153 -170 -191 -333 -20 -86 -14
-163 28 -365 17 -82 32 -193 35 -255 l5 -110 -61 -162 c-79 -211 -92 -258 -98
-378 -4 -66 -12 -112 -23 -135 -30 -60 -59 -167 -101 -370 -56 -276 -76 -331
-114 -316 -22 8 -67 111 -103 236 -54 187 -60 242 -66 575 -7 398 -30 616
-112 1054 -86 459 -104 429 -103 -174 l1 -360 -32 -140 c-73 -326 -140 -691
-140 -764 0 -26 8 -44 32 -68 l32 -33 -18 -74 c-18 -78 -53 -158 -72 -163 -14
-5 -112 195 -183 375 -108 272 -197 577 -208 717 -5 74 1 100 86 335 40 112
40 162 -4 329 -97 366 -216 573 -347 606 -16 4 -28 4 -28 -1z"/>
<path d="M71 1923 c187 -167 316 -306 535 -578 132 -163 265 -297 335 -338
l44 -26 452 -3 c248 -2 449 0 446 5 -2 4 -10 7 -18 7 -8 0 -97 28 -197 61
l-183 62 -155 6 c-176 8 -192 14 -235 87 -14 25 -48 94 -75 155 -27 61 -63
134 -81 162 -39 62 -197 227 -256 268 -91 64 -292 126 -547 170 -61 10 -115
19 -120 19 -5 0 19 -26 55 -57z"/>
<path d="M12590 1814 c-102 -47 -213 -96 -248 -109 -201 -78 -348 -181 -582
-412 -180 -176 -198 -188 -361 -236 -46 -14 -133 -35 -194 -48 -60 -12 -117
-26 -125 -31 -10 -6 -4 -8 19 -4 18 3 188 6 377 6 l343 0 34 29 c18 16 61 81
95 144 49 91 76 128 130 178 121 115 401 340 605 486 105 75 115 83 102 83 -6
0 -93 -39 -195 -86z"/>
<path d="M10733 973 c9 -2 23 -2 30 0 6 3 -1 5 -18 5 -16 0 -22 -2 -12 -5z"/>
</g>
</svg>
